<?xml version="1.0" encoding="UTF-8"?>
<svg id="Layer_1" data-name="Layer 1" xmlns="http://www.w3.org/2000/svg" viewBox="0 0 35.59 34.87">
  <g id="Group_34" data-name="Group 34">
    <g id="Group_33" data-name="Group 33">
      <path id="Path_224" data-name="Path 224" d="M34.44,22.8c.68-1.52,1.07-3.16,1.15-4.83.05-1.19-.22-2.38-.76-3.44-.33-.78-1.07-1.31-1.92-1.36-.28.01-.55.08-.8.18-.4-1.12-1.06-2.12-1.92-2.93-.69-.7-1.61-1.1-2.59-1.14-.55,0-1.08.24-1.45.65-.91-.41-1.87-.71-2.86-.87.76-.99,1.73-1.81,2.83-2.4,1.03-.56,2.19-.86,3.37-.87.61,0,1.21.1,1.78.3-1.05-.93-2.41-1.42-3.81-1.37-2.15-.03-4.2.96-5.5,2.68-.24-.16-.52-.24-.8-.24-1.14.07-2.14.78-2.58,1.83-.65,1.23-1,2.6-1.01,3.99-.18-.21-.34-.43-.54-.63-.79-.79-1.69-1.46-2.68-1.99.43-.38.69-.91.73-1.49-.06-.72-.45-1.37-1.05-1.77-.85-.65-1.81-1.13-2.83-1.43-1.59-.5-3.22-.83-4.87-.99.95-1.06,2.12-1.9,3.43-2.45,1.37-.6,2.85-.92,4.34-.91,2.42,0,3.94.69,4.57,2.06.31-.35.56-.75.73-1.18.15-.45.23-.92.25-1.4-.68-.27-1.39-.47-2.12-.6C16.77.07,16,0,15.22,0c-1.98,0-3.94.38-5.78,1.11-1.96.77-3.77,1.86-5.37,3.22-1.1.91-2.06,1.98-2.85,3.17-.65.85-1.05,1.86-1.15,2.93-.05.73.39,1.4,1.08,1.64-.68,1.53-1.08,3.17-1.15,4.84-.04,1.19.22,2.37.76,3.43.33.78,1.07,1.31,1.91,1.36.28-.01.55-.08.8-.19.4,1.12,1.05,2.12,1.92,2.93.69.7,1.61,1.11,2.59,1.14.55,0,1.08-.24,1.45-.65.91.41,1.87.71,2.86.88-.76.99-1.73,1.81-2.84,2.39-1.03.57-2.19.87-3.37.87-.61,0-1.21-.1-1.78-.29,1.05.92,2.41,1.42,3.81,1.37,2.15.03,4.2-.96,5.5-2.68.24.16.52.24.8.24,1.14-.07,2.14-.78,2.58-1.83.65-1.23.99-2.6,1.01-3.99.18.21.34.43.55.63.79.79,1.69,1.46,2.68,1.99-.43.38-.69.91-.72,1.48.06.72.45,1.37,1.05,1.76.85.65,1.81,1.13,2.83,1.44,1.58.5,3.22.83,4.87.98-.95,1.06-2.12,1.9-3.43,2.46-1.37.6-2.85.91-4.34.91-2.42,0-3.94-.69-4.57-2.06-.31.35-.56.75-.73,1.18-.15.46-.23.93-.25,1.41.69.27,1.4.47,2.12.6.76.14,1.53.2,2.3.2,1.98,0,3.94-.38,5.78-1.11,1.95-.77,3.77-1.86,5.37-3.22,1.1-.91,2.06-1.98,2.85-3.17.65-.85,1.04-1.86,1.14-2.92.06-.73-.38-1.4-1.07-1.65M12.95,24.56v.02c-.07.12-.12.2-.14.24s-.04.08-.06.13c-2.16-.64-4.13-1.78-5.74-3.35-.75-.79-1.39-1.68-1.9-2.64-.56-1.03-.99-2.13-1.29-3.27-.3-1.14-.45-2.31-.46-3.49-.01-1.2.17-2.4.52-3.55.34-1.09.87-2.11,1.56-3.03.31.1.6.23.87.41-.52.83-.93,1.72-1.21,2.65-.27.93-.4,1.9-.39,2.87,0,1.76.3,3.5.9,5.15.54,1.55,1.37,2.98,2.45,4.22,1.42,1.48,3.08,2.69,4.92,3.59-.01.01-.03.03-.04.05M13.4,23.55c-2.33-.98-4.3-2.64-5.68-4.76-.68-1.04-1.2-2.19-1.54-3.39-.34-1.24-.51-2.52-.51-3.81,0-1.79.45-3.55,1.3-5.13,1.44.81,2.71,1.88,3.76,3.15,1.13,1.34,2.02,2.86,2.64,4.5.61,1.55.93,3.21.95,4.88,0,1.56-.31,3.11-.91,4.55M28.62,28.4c-1.44-.81-2.71-1.88-3.75-3.15-1.13-1.34-2.02-2.87-2.64-4.51-.61-1.55-.93-3.2-.95-4.87,0-1.56.31-3.11.91-4.55,2.32.99,4.3,2.64,5.68,4.76.68,1.05,1.2,2.19,1.54,3.39.34,1.24.52,2.52.51,3.8,0,1.79-.45,3.55-1.3,5.13M31.71,26.21c-.34,1.09-.87,2.11-1.56,3.02-.31-.1-.6-.23-.87-.41.52-.82.93-1.72,1.21-2.65.27-.93.4-1.9.39-2.87,0-1.76-.3-3.5-.9-5.15-.54-1.55-1.37-2.98-2.44-4.22-1.42-1.48-3.08-2.69-4.92-3.58.02-.02.03-.03.04-.05v-.02c.07-.12.12-.2.14-.24s.04-.08.07-.13c2.16.64,4.13,1.78,5.74,3.35.75.79,1.39,1.68,1.89,2.64.56,1.04,1,2.14,1.29,3.28.3,1.14.46,2.31.46,3.49.01,1.21-.16,2.41-.52,3.56"/>
    </g>
  </g>
</svg>