<svg xmlns="http://www.w3.org/2000/svg" viewBox="0 0 168.13 18.7">
  <g data-name="Group 42">
    <path data-name="Path 227" d="M82.01,6.66c.13.38.31.75.53,1.08.41.53.86,1.04,1.34,1.52.08.09.2.14.32.14.18.01.35-.07.45-.22.07-.15.14-.3.22-.45.16-.23.32-.45.48-.68.26-.39.48-.8.64-1.24.15-.38.23-.78.24-1.18,0-.03-.02-.29-.06-.78s-.05-.98-.05-1.44c0-.23.03-.46.07-.69.04-.19.06-.37.07-.56,0-.31-.1-.47-.3-.47-.12,0-.25.15-.39.44-.14.3-.26.44-.36.44-.09,0-.23-.11-.4-.33-.21-.28-.37-.59-.47-.92-.1-.39-.18-.78-.23-1.18-.06-.1-.17-.15-.29-.14-.13,0-.2.1-.22.29-.02.31-.04.61-.06.92-.03.36-.13.7-.31,1.01-.16.25-.33.38-.51.38-.1,0-.18-.06-.23-.14-.06-.11-.12-.23-.17-.35-.15-.33-.32-.49-.53-.49-.11,0-.17.07-.17.22,0,1.72.03,2.87.08,3.47.04.46.14.92.3,1.35M83.7,3.82c.06-.43.12-.65.19-.65.04,0,.07.05.08.14.01.13.03.25.04.38.17,1.07.26,2.16.28,3.24,0,1.02-.09,1.53-.26,1.53-.09,0-.18-.21-.27-.64-.13-.69-.18-1.39-.17-2.09,0-.64.03-1.28.11-1.92M85.65,8.63c-.13.13-.24.28-.32.45,0,.11.05.17.16.17.35-.15.67-.34.96-.59.71-.51,1.36-1.1,1.94-1.76.7-.79,1.25-1.7,1.61-2.69.18-.5.32-1.01.44-1.53.06-.22.1-.45.13-.68,0-.17-.05-.26-.16-.26-.33,0-.78.34-1.33,1.02-.47.59-.76.88-.87.88-.06,0-.11-.05-.16-.16-.07-.17-.13-.33-.2-.5-.11-.25-.2-.38-.27-.38-.09-.01-.17.05-.18.13,0,.02,0,.03,0,.05,0,.05.02.22.05.51.03.27.05.54.06.82-.03,1.22-.4,2.41-1.07,3.43-.23.39-.5.75-.79,1.1M79.31,6.77c.58.74,1.27,1.38,2.05,1.91.5.36,1.09.58,1.7.62.28,0,.42-.05.42-.16,0-.07-.05-.12-.15-.16-.61-.21-1.15-.58-1.58-1.07-.85-1.08-1.28-2.85-1.28-5.32,0-.04,0-.1.01-.19,0-.06.01-.12.01-.17,0-.17-.1-.26-.3-.26-.12,0-.21.14-.27.42-.04.3-.14.6-.27.87h-.25c-.41-.36-.76-.77-1.04-1.23-.26-.41-.46-.62-.57-.62-.17,0-.25.2-.25.59.04.65.16,1.3.37,1.92.27,1.03.74,2,1.39,2.86M149.41,11.97c-5.52-1.44-10.85-2.93-16.64-2.47-2.13.21-4.22.68-6.23,1.39-2.33-1.04-4.84-1.62-7.39-1.68-3.59.12-7.08,1.14-10.17,2.97-1.12.62-2.19,1.34-3.27,2.07-1.11-.32-2.25-.55-3.4-.66-.7-.06-1.45.63-2.14.57,1.53.15,3.05.4,4.54.76-1.99,1.47-4.27,2.49-6.69,2.99-1.88.28-3.8-.18-5.34-1.3.82-.59,1.56-1.29,2.19-2.08,1.89-2.45,1.58-6.55-1.54-7.66-3.53-1.26-5.11,2.65-4.7,5.5.27,1.58,1.13,3,2.41,3.97-1.32.83-2.8,1.37-4.35,1.58-.56.06-1.13,0-1.66-.17,1.55-.86,2.38-2.61,2.06-4.35-.18-1.04-.83-1.95-1.76-2.45.38.03.74.17,1.05.4.3.21,1.73.36,1.12-.08-1.06-.78-2.39-1.09-3.69-.87-1.12-.24-2.3-.01-3.25.62-.28.2.68.69,1.15.63-.22.28-.39.58-.52.91-.82,2.07.31,3.85,1.97,4.93-.13.06-.26.11-.38.16-1.95.56-4.04.18-5.67-1.02,1.08-.9,1.89-2.09,2.32-3.44.94-3.01-.76-6.36-4.02-6.51-3.8-.17-3.69,4.81-2.36,7.14.61,1.01,1.43,1.88,2.4,2.55-1.6,1.08-3.5,1.64-5.43,1.6-2.67-.08-5.14-1.6-7.49-3.21,1.09-.28,2.21-.48,3.33-.59.73-.06,1.42-.51,2.14-.57-1.89.21-3.76.57-5.6,1.07-1.37-.94-2.7-1.91-4-2.63-2.91-1.65-6.15-2.61-9.49-2.82-2.33-.05-4.65.38-6.81,1.25-1.84-.57-3.73-.92-5.65-1.05-4.49-.35-8.96.78-13.27,1.92-6.84,1.95-13.91,3.01-21.02,3.16-.72,0-1.43.57-2.14.57,5.81-.04,11.6-.76,17.25-2.14,5.66-1.39,11.13-3.14,17.04-2.94,2,.1,3.96.52,5.83,1.24-3.34,1.37-6.64,2.93-10.28,3.02-.76.02.51.72.87.71,3.85-.09,7.43-1.67,10.96-3.11,3.79,1.6,7.41,3.72,11.62,4.27,3.05.4,5.74-.48,8.5-1.2,2.88,1.87,5.75,3.64,9.36,3.76,1.92.05,3.8-.52,5.36-1.62,1.36.8,2.87,1.31,4.44,1.51,1.14.12,2.3-.04,3.36-.49.55.23,1.13.38,1.72.46,2.11.19,4.22-.34,6-1.5,1.17.71,2.46,1.22,3.81,1.49,3.9.79,7.33-1.19,10.48-3.25,3,.66,5.95,1.19,9.32.31,1.34-.35,2.64-.71,3.95-1.15,2.2-.9,4.35-1.92,6.43-3.05,3.96,1.52,7.78,3.47,12.1,3.57.96.02-.1-.7-.56-.71-3.8-.09-7.23-1.82-10.72-3.23.88-.37,1.79-.64,2.73-.81,5.69-.98,11.43.66,16.88,2.13,6.36,1.75,12.92,2.67,19.52,2.74.71,0,1.43-.58,2.14-.57-6.32-.06-12.61-.91-18.73-2.53M55.43,15.55c-3.79-.23-7.23-2.12-10.5-3.88-.41-.22-.84-.42-1.27-.6,5.48-2.01,10.58-.81,15.52,2.19.83.5,1.65,1.04,2.46,1.57-2.02.55-4.12.79-6.21.72M76.07,15.85c-.99-.81-1.76-1.85-2.24-3.04-.63-1.62-.37-3.45.69-4.82,1.2-1.31,2.86-.06,3.37,1.25.32.98.4,2.02.21,3.03-.22,1.4-.94,2.67-2.03,3.58M83.85,17.1c-.97-.75-1.52-1.93-1.46-3.16.11-1.16.78-2.18,1.8-2.74,1.1.67,1.7,1.92,1.54,3.2-.15,1.15-.85,2.16-1.88,2.71M91.77,15.82c-1.2-1.21-1.86-2.85-1.83-4.55-.11-1.65.83-3.18,2.35-3.83,2.89-.94,2.29,4.25,1.86,5.42-.5,1.19-1.32,2.22-2.39,2.96M124.89,11.48c-4.35,1.63-7.56,4.18-12.53,4.13-1.74-.08-3.46-.4-5.12-.94l.31-.21c4.6-3.06,10.14-5.67,15.75-4.02.77.23,1.53.49,2.29.77-.24.08-.47.17-.7.26"/>
  </g>
</svg>
