<?xml version="1.0" encoding="UTF-8"?>
<svg id="Group_67" data-name="Group 67" xmlns="http://www.w3.org/2000/svg" viewBox="0 0 58.34 58.53">
  <g id="Group_66" data-name="Group 66">
    <path id="Path_239" data-name="Path 239" d="M28.83,14.36c3.7-.34,8.18-1.14,11.02-3.74,2.04-1.87,4.34-5.51,2.11-8.16-1.63-1.93-4.51-2.17-6.43-.54-.52.44-.93.98-1.21,1.6-.91,1.6-.35,3.63,1.25,4.54.52.29,1.1.45,1.7.44,1.59-.16,2.76-1.58,2.6-3.17-.04-.37-.14-.73-.32-1.06-.05-.11-.12-.21-.19-.3-.03-.05-.07-.09-.12-.12-.44-.51-1.2-.6-1.75-.21-.53.52-.54,1.37-.03,1.9.33.43.88.64,1.41.55-.27.54-.79.92-1.39,1.01-.42.04-.85,0-1.26-.13-2.03-.75-1.33-3.3.24-4.18,2.88-1.61,6.9.66,4.92,4.14-2.59,4.53-8.42,5.83-13.27,6.1-.56.03-1.12.05-1.68.06.1-1.47.02-2.95-.25-4.4C25.38,4.04,21.59.49,16.89,0c-.37-.05-.2,1.08.11,1.12,4.37.63,8.28,3.42,8.77,8.1.13,1.29.1,2.6-.08,3.88-2.84.02-5.67-.15-8.49-.53-.02-.03-.05-.06-.07-.09-1.11-1.48-2.3-5.19-.63-6.35.74-.53,1.71-.62,2.54-.23,1.18.73,1.55,2.27.82,3.45,0,0,0,0,0,.01-.33-.26-.75-.38-1.16-.32-.74.08-1.29.61-1.23,1.16.18.63.82,1.01,1.46.85.13-.02.25-.05.37-.09,1.59-.42,2.43-2.44,2.02-4.06-.43-1.63-2.03-2.66-3.69-2.37-3.85.67-2.96,5.13-1.42,7.89-1.06-.16-2.11-.34-3.16-.54-.65-3.13-1.67-6.24-4.03-8.49C7.27,1.71,4.04-.34,1.69,1.36c-.11.1-.22.2-.32.32-1.7,2.35.35,5.58,2.03,7.34,2.25,2.36,5.36,3.37,8.49,4.03.21,1.05.39,2.1.54,3.16-2.76-1.55-7.22-2.43-7.89,1.42-.29,1.66.74,3.26,2.37,3.69,1.62.42,3.64-.43,4.06-2.02.04-.12.07-.24.09-.37.15-.64-.22-1.28-.85-1.46-.56-.06-1.08.49-1.16,1.23-.06.42.05.84.32,1.17-1.17.73-2.72.38-3.46-.8,0,0,0,0,0-.01-.38-.83-.29-1.8.23-2.54,1.16-1.67,4.87-.48,6.35.63.03.02.06.05.09.07.38,2.82.56,5.66.53,8.5-1.29.18-2.6.21-3.9.08-4.67-.5-7.46-4.41-8.09-8.78-.04-.31-1.17-.48-1.12-.11.48,4.69,4.04,8.49,8.69,9.28,1.45.27,2.94.34,4.41.23-.01.56-.03,1.12-.06,1.68-.27,4.85-1.56,10.68-6.1,13.27-3.47,1.99-5.74-2.03-4.14-4.92.88-1.57,3.42-2.27,4.18-.24.13.41.17.84.13,1.26-.09.6-.47,1.12-1.01,1.39.09-.54-.12-1.08-.55-1.41-.53-.51-1.38-.5-1.9.03-.39.55-.3,1.31.21,1.75.04.04.08.08.12.12.09.07.19.14.3.19,1.42.74,3.17.2,3.92-1.22.17-.33.28-.69.32-1.06.03-1.84-1.44-3.35-3.28-3.38-.59,0-1.18.14-1.69.43-2.3,1.04-3.31,3.74-2.28,6.04.28.62.69,1.16,1.21,1.6,2.65,2.22,6.29-.07,8.16-2.11,2.6-2.84,3.4-7.31,3.74-11.02.08-.86.13-1.72.15-2.59.77-.12,1.53-.3,2.27-.53.06.41.12.82.16,1.22.33,2.93-.13,5.9-1.32,8.6-1.21,2.62-3.64,4.34-5.92,5.96-1.45,1.02.64.62.97.4,3.94-2.66,6.6-5.66,7.33-10.48.29-2.02.27-4.08-.08-6.1,1.49-.57,2.84-1.43,3.99-2.53.3-.26.58-.53.83-.83,1.11-1.15,1.98-2.51,2.57-4,2.01.34,4.06.36,6.08.07,4.82-.73,7.82-3.39,10.48-7.33.22-.32.62-2.42-.4-.97-1.62,2.29-3.34,4.71-5.95,5.93-2.7,1.19-5.67,1.65-8.6,1.32-.39-.04-.79-.09-1.2-.16.23-.75.4-1.51.52-2.28.86-.02,1.72-.07,2.57-.15M5.63,9.31c-1.55-1.09-5.05-4.39-3.7-6.8.14-.25.35-.46.6-.6,2.57-1.27,5.7,2.16,6.79,3.71,1.15,1.82,1.92,3.84,2.28,5.96-2.12-.35-4.15-1.13-5.96-2.27M14.54,25.44c0-2.21-.12-4.42-.37-6.62,1.26,1.79,2.11,3.83,2.48,5.99-.69.25-1.39.46-2.11.63M21.71,21.71c-1.17,1.09-2.5,1.98-3.96,2.64-.51-2.68-1.82-5.13-3.77-7.04-.13-.98-.28-1.96-.45-2.93-.06-.35-.12-.7-.19-1.06.35.06.71.13,1.06.19.97.17,1.95.31,2.93.45,1.9,1.95,4.36,3.26,7.03,3.77-.66,1.46-1.56,2.8-2.65,3.97M24.82,16.63c-2.15-.37-4.2-1.22-5.98-2.48,2.19.26,4.4.38,6.61.37-.16.72-.37,1.42-.62,2.11M6.63,43.38c-2.7,1.27-4.44,3.98-4.45,6.97v7.44c0,1.02,1.54.99,1.54-.15v-6.06c-.12-1.4.03-2.82.45-4.16.77-1.59,2.04-2.89,3.6-3.71,1.46-.87-.79-.51-1.13-.33M57.6,2.36h-7.44c-2.99.02-5.69,1.75-6.96,4.45-.19.34-.55,2.59.32,1.13.82-1.56,2.12-2.83,3.71-3.6,1.34-.42,2.76-.57,4.16-.45h6.06c1.14,0,1.17-1.54.15-1.54"/>
  </g>
</svg>