<?xml version="1.0" encoding="UTF-8"?>
<svg id="Layer_1" data-name="Layer 1" xmlns="http://www.w3.org/2000/svg" viewBox="0 0 68.94 7.47">
  <g id="Group_55" data-name="Group 55">
    <g id="Group_31" data-name="Group 31">
      <path id="Path_223" data-name="Path 223" d="M68.87,1.55c-2.87-1.51-6.19-1.95-9.36-1.22-3-.62-6.12-.32-8.94.88-2.3.95-4.24,2.35-6.56,3.51-.99.52-2.02.96-3.09,1.32-.83-.22-1.65-.5-2.43-.84.72-.35,1.41-.74,2.09-1.17.23-.16.17-.33-.13-.3-.63.03-1.25.18-1.82.42-.37.21-.74.41-1.11.59-.37-.19-.74-.38-1.11-.59-.58-.25-1.2-.39-1.82-.42-.03,0-.07,0-.1,0-.03,0-.07,0-.1,0-.63.03-1.25.18-1.82.42-.37.21-.74.41-1.11.59-.37-.19-.74-.38-1.11-.59-.58-.25-1.2-.39-1.83-.42-.3-.03-.36.15-.13.3.67.43,1.37.82,2.09,1.17-.79.34-1.6.62-2.43.84-1.06-.36-2.09-.8-3.08-1.32-2.32-1.16-4.26-2.56-6.56-3.51C15.55,0,12.43-.3,9.43.32,6.27-.4,2.95.04.07,1.55c-.23.12.09.31.6.31.39,0,.78-.08,1.14-.22,1.56-.75,3.29-1.07,5.01-.93.3.03.59.07.89.13-.54.2-1.06.44-1.57.72-.23.12.09.31.6.31.39,0,.78-.08,1.14-.22.37-.17.75-.32,1.14-.45,1.23.46,2.4,1.06,3.49,1.79,2.57,1.64,5.24,3.51,8.16,4.18,1.49.33,3.03.4,4.55.22.47-.06.95-.15,1.43-.25.03,0,.07.02.1.03,1.49.33,3.03.4,4.54.22,1.07-.15,2.13-.37,3.16-.67,1.04.3,2.09.52,3.16.67,1.52.18,3.05.11,4.54-.22.03,0,.07-.02.1-.03.48.1.96.18,1.43.25,1.52.18,3.05.11,4.54-.22,2.92-.68,5.59-2.54,8.16-4.18,1.09-.73,2.26-1.33,3.49-1.79.39.13.77.28,1.14.45.36.14.75.22,1.14.22.51,0,.83-.19.61-.31-.5-.28-1.02-.51-1.56-.72.29-.06.59-.1.89-.13,1.72-.14,3.45.18,5.01.93.36.14.75.22,1.14.22.51,0,.83-.19.61-.31M18.86,4.71c-2.32-1.16-4.26-2.56-6.56-3.51-.42-.17-.85-.33-1.29-.47.63-.07,1.26-.08,1.89-.03,2.06.28,4.01,1.05,5.7,2.27,1.94,1.35,3.99,2.53,6.13,3.52-2.07-.11-4.09-.72-5.87-1.78M31.41,6.48c-.65.04-1.31,0-1.96-.1.67-.22,1.33-.47,1.98-.74.53.23,1.07.44,1.62.63-.54.1-1.09.18-1.64.22M32.41,5.19c.71-.34,1.39-.72,2.06-1.15.66.42,1.35.81,2.06,1.15-.67.29-1.36.54-2.06.74-.7-.2-1.39-.45-2.06-.74M37.53,6.48c-.55-.04-1.1-.11-1.64-.22.55-.19,1.09-.4,1.62-.63.65.28,1.31.52,1.98.74-.65.11-1.3.14-1.96.1M56.65,1.21c-2.3.95-4.24,2.35-6.56,3.51-1.79,1.05-3.8,1.66-5.87,1.78,2.14-.99,4.19-2.17,6.13-3.52,1.69-1.21,3.64-1.99,5.7-2.27.63-.05,1.26-.04,1.89.03-.44.14-.87.29-1.29.47"/>
    </g>
  </g>
</svg>