<?xml version="1.0" encoding="UTF-8"?>
<svg id="Layer_1" data-name="Layer 1" xmlns="http://www.w3.org/2000/svg" viewBox="0 0 2943.72 36">
  <path d="M1481.7,8.32c.04-.24.07-.48.07-.72h0c0-.45-.2-.88-.55-1.16-.41-.32-.92-.49-1.44-.46-1.3.02-2.52.61-3.35,1.6-1.14,1.34-1.93,2.95-2.3,4.67-.23,1.12-.36,1.89-.4,2.3-.05.27-.12.58-.19.94-.04.15-.07.29-.09.44,0,.06.02.13.06.18.11-.02.2-.08.26-.17.03-.1.05-.19.07-.29.1-.56.24-1.12.42-1.66.22-.71.51-1.41.85-2.07.73-1.47,1.67-2.84,2.78-4.05.61-.75,1.49-1.24,2.45-1.35.23.02.45.1.63.25.19.1.32.29.35.5-.03.23-.08.45-.15.66-.09.29-.15.58-.15.88,0,.08,0,.15.02.22.2-.14.4-.26.61-.39,0-.04.02-.14.06-.33Z"/>
  <path d="M1471.74,14.88c-.25-.8-.47-1.6-.66-2.42-.31-1.43-.91-2.79-1.76-3.98-.52-.74-1.17-1.38-1.92-1.89-.58-.39-1.25-.6-1.94-.62-.3,0-.59.09-.86.24-.29.14-.55.34-.75.59-.15.2-.22.45-.21.7-.01.34.05.67.15.99.19.11.38.22.56.33.06-.12.09-.25.1-.39,0-.13-.04-.25-.09-.36-.05-.12-.07-.25-.08-.39-.01-.31.09-.61.3-.84.21-.22.49-.33.79-.32.79.15,1.5.6,1.97,1.25,1.01,1.13,1.86,2.39,2.54,3.74.69,1.3,1.23,2.67,1.62,4.08.03.12.07.25.12.36.04.08.12.13.21.13.02,0,.04,0,.05,0,.09-.02.15-.11.14-.2h0c-.07-.34-.17-.68-.28-1.01Z"/>
  <path d="M1473.89,10.03c.22-.58.46-1.16.74-1.72.15-.26.25-.53.32-.82h.01c0-.16-.07-.32-.18-.43-.1-.12-.24-.2-.4-.2-.12.03-.24.09-.34.18-.1.08-.21.14-.33.17-.04,0-.11-.07-.21-.22-.28-.38-.43-.59-.46-.62-.15-.18-.24-.29-.28-.34-.09-.08-.21-.13-.33-.12-.17,0-.41.23-.73.67-.12.17-.23.34-.34.5-.09.12-.15.18-.2.18-.12-.03-.23-.09-.33-.16-.1-.08-.22-.14-.34-.16-.1.01-.2.06-.27.14-.09.08-.14.18-.14.3.17.55.37,1.09.6,1.62.58,1.45.91,2.29.99,2.52.22.7.35,1.43.41,2.16.04.61.08,1.22.13,1.83.04.41.13.61.27.61h.02c.07,0,.1-.47.1-1.42,0-.25-.02-.64-.07-1.14-.05-.54-.08-.93-.09-1.2,0-.43-.02-.83-.05-1.18-.02-.31-.03-.46-.03-.43,0-.25.04-.37.13-.37s.18.32.26.97c.1.93.15,1.87.14,2.81v.09c0,.08,0,.21-.01.37,0,.16,0,.29,0,.38,0,.43.05.65.14.65.07,0,.11-.1.14-.29.03-.28.06-.56.08-.84.13-1.36.22-2.23.27-2.62.07-.63.21-1.25.4-1.85Z"/>
  <path d="M1468.69,3.7c.68.62,1.27,1.13,1.78,1.52.22.2.47.37.74.5.16,0,.24-.07.24-.23h0c-.52-1.04-1.13-2.04-1.8-2.99-.26-.44-.56-.86-.88-1.26-.25-.31-.63-.5-1.03-.51-.23,0-.45.09-.61.25-.16.15-.25.36-.24.58.03.36.21.68.48.92.44.42.88.82,1.33,1.22Z"/>
  <path d="M1472.91,5.27c.07.15.16.23.27.23.99-.45,1.93-1.03,2.77-1.73.85-.61,1.38-1,1.59-1.18.39-.34.58-.64.58-.88h0c0-.52-.17-.79-.51-.79-.84.14-1.6.6-2.1,1.29-.1.1-.43.48-.99,1.14-.52.61-1.01,1.15-1.47,1.61l-.14.32Z"/>
  <path d="M1474.15,5.42c-.35.21-.52.38-.52.5,0,.15.14.23.44.23.25,0,1.92-.4,5.02-1.2.46-.09.88-.31,1.23-.61.27-.22.42-.55.43-.9h0c0-.48-.28-.72-.84-.72-.62.05-1.23.23-1.77.54-.04.02-.87.46-2.49,1.34-.86.46-1.36.74-1.5.83Z"/>
  <path d="M1465.14,4.51c1.04.46,2.11.86,3.2,1.2l1.4.47c.24.1.5.16.76.19.13,0,.19-.08.19-.24h0c0-.07-.14-.19-.42-.38-.66-.46-1.03-.71-1.12-.77-1.21-.87-2.09-1.48-2.64-1.82-.43-.32-.92-.54-1.44-.64-.68,0-1.03.24-1.03.73s.37.87,1.09,1.25Z"/>
  <path d="M1471.95,5.15c.03.19.04.29.04.29.02.07.09.11.16.1.07,0,.14-.04.16-.11.04-.13.05-.27.06-.41.05-.49.15-.98.28-1.46.14-.52.27-1.03.41-1.55.08-.27.13-.55.16-.83h0c.01-.3-.08-.6-.25-.84-.15-.21-.39-.34-.64-.33-.3-.01-.59.11-.79.34-.21.26-.32.59-.3.92.03.55.12,1.1.26,1.64.23,1.04.38,1.78.45,2.25Z"/>
  <path d="M1483.19,35.35c-10.21-6.05-8.7-22.71,2.3-27.17,1.14-.46.43-.62-.35-.6h0c-1.03.02-2.04.28-2.96.74-.19.1-.36.22-.54.32-.21.13-.41.26-.61.39-9.01,6.09-9.83,20.96.12,26.85.54.32,2.77-.1,2.04-.54Z"/>
  <path d="M1524.37,22.56c-6.22.04-12.66.49-18.13,3.74-2.75,1.63-4.79,4.06-7.7,5.47-5.08,2.47-10.81,1.08-14.79-2.68-2.88-2.9-4.06-7.09-3.12-11.07,1.21-5.99,7.6-9.91,13.12-6.44,4.3,2.71,4.33,8.77.68,11.96-2.5,2.18-4.91.57-6.34-1.12-.72-1-1.01-2.25-.81-3.47.13-1.64,1.97-3.99,4.07-2.88.88.44,1.4,1.38,1.3,2.36-.28.11-.52.28-.72.51-.61.62-.6,1.61,0,2.23.71.5,1.69.33,2.2-.37,3.35-4.4-3.64-8.02-7.09-5.21-4.74,3.87-.72,10.22,4.75,9.87,5.12-.32,9.47-5.26,7.19-10.51-2.21-5.04-8.69-7.12-13.7-5.09-5.66,2.39-8.61,8.67-6.83,14.55,1.61,5.9,7.75,9.14,13.46,9.55,5.74.41,10.06-2.37,14.32-5.81,5.14-4.15,11.81-4.61,18.16-4.65h1419.32v-.95h-1419.35Z"/>
  <path d="M1463.51,8.32c-.92-.46-1.93-.72-2.96-.74h0c-.78-.02-1.49.14-.35.6,11,4.46,12.52,21.11,2.3,27.17-.73.44,1.5.86,2.04.54,10.06-5.97,9.11-21.11-.19-27.06-.18-.12-.37-.23-.56-.33-.1-.06-.19-.12-.28-.17Z"/>
  <path d="M1467.23,24.41c1.78-5.89-1.18-12.16-6.84-14.55-5.01-2.03-11.49.04-13.69,5.09-2.29,5.24,2.07,10.18,7.19,10.51,5.47.35,9.49-6,4.76-9.87-3.46-2.82-10.45.81-7.1,5.21.51.71,1.49.87,2.2.37.61-.62.61-1.61,0-2.23-.19-.23-.44-.4-.72-.51-.1-.98.42-1.92,1.3-2.36,2.1-1.11,3.95,1.24,4.07,2.88.2,1.22-.09,2.46-.81,3.47-1.44,1.69-3.84,3.3-6.34,1.12-3.65-3.19-3.62-9.25.68-11.96,5.52-3.47,11.91.45,13.12,6.44.94,3.98-.24,8.16-3.12,11.07-3.98,3.76-9.71,5.15-14.79,2.68-2.91-1.41-4.95-3.84-7.7-5.47-5.46-3.25-11.91-3.7-18.13-3.74H0v.95h1421.29c6.35.04,13.03.5,18.16,4.65,4.26,3.44,8.58,6.21,14.32,5.81,5.71-.41,11.85-3.65,13.46-9.55Z"/>
</svg>