<?xml version="1.0" encoding="UTF-8"?>
<svg id="Layer_1" data-name="Layer 1" xmlns="http://www.w3.org/2000/svg" viewBox="0 0 419.76 392.27">
  <g id="Group_43" data-name="Group 43">
    <path id="Path_228" data-name="Path 228" d="M380.84,268.79c4.23,6.76,9.55,6.64,7.21-1.44-3.47-12.01-13.76-27.1-22.85-33.41-9.94-6.9-23.33-7.6-33.43-1.96-11.9,6.65-10.49,20.96-.4,18.55s17.73-5.26,26.11-2.03c9.37,3.61,15.76,8.1,23.36,20.29M116.5,301.87c10.18-2.89,24.17-13.36,31.04-23.15,4.62-6.59-.15-8.35-6.07-3.54-10.66,8.67-17.83,10.75-27.44,11.11-8.58.33-14.61-4.63-23-9.94s-14.1,7.21-5.38,16.92c7.39,8.23,19.73,11.75,30.85,8.59M176.02,368.77c-8.78-5.4-16.17-8.75-19.8-16.9-4.06-9.12-5.4-16.77-2.21-30.67,1.78-7.73-2.05-11.38-6.08-4.05-5.98,10.89-9.33,28.74-7.37,39.54,2.16,11.83,11.09,21.73,22.15,24.85,13.05,3.67,22.1-7.39,13.31-12.77M402.09,152.11c-10.31,4.1-17.91,14.51-18.79,26.09-.81,10.59,4.2,27.4,11.05,37.26,4.6,6.64,7.92,2.75,5.43-4.49-4.46-13.04-3.94-20.53-.95-29.69,2.67-8.2,9.42-12.17,17.33-18.23s-1.9-15.78-14.07-10.94M342.96,151.89c-9.02-19.58-12.19-46.59,4.23-63.35,22.01-22.47,57.86,4.22,50.43,31.76-1.88,6.74-6.7,12.28-13.12,15.07-7.51,3.05-14.58,1.04-19.53-5.38-2.23-2.91-4.1-8.52-4.43-14.03,2.22.78,4.57,1.1,6.92.93,7.64-.54,13.5-5.64,13.1-11.42-.37-5.19-5.69-9.12-12.31-9.47-.75-.09-1.5-.09-2.25-.01-1.24.1-2.48.33-3.67.69-12.08,3.01-17.38,13.42-13.8,26.39,4.21,15.22,20.94,21.87,35.54,19.51,15.04-2.44,27.45-14.43,27.9-29.96.47-16.32-12.62-29.99-27.47-34.53-15.05-4.6-33.04-3.72-46.26,5.42-13.38,9.25-16.49,27.13-15.58,42.23.93,15.54,8.39,29.97,15.89,43.28,1.92,3.41,3.94,6.8,6.02,10.15-14.49-14.41-24.6-29.93-31.29-48.24-9.04-24.74-5.88-56.84,3.12-81.14,9.53-25.73,36.43-46.18,64.63-42.65,13.77,1.72,22.46,13.71,22.74,27.06.15,7.76-6.39,20.24-14.78,20.52,2.29-5.27-.52-12.45-6.97-16.83-7.05-4.78-15.7-4.34-19.31,1s-.83,13.53,6.23,18.31c10.43,7.37,27.68,5.57,37.83-1.08,13.3-8.72,16.15-24.88,9.62-38.17C409.1,3.07,390.99-.14,376.11,0c-18.32.3-36.11,6.22-50.95,16.96-29.19,20.79-35.68,61.56-31.95,94.96,2.95,26.47,17.33,49.83,36.61,68.41-23.12-6.81-48.31-7.95-70.45-3.26-38.96,8.25-71.36,41.83-80.16,80.37-.2.88-.33,1.78-.5,2.67-27.07,13.12-41.95,42.12-56.96,66.77-16.92,27.79-44.91,69.25-82.81,53.4-16.38-6.84-25.02-21.26-25.5-38.56-.46-16.8,8.13-30.56,23.12-38.17,22.87-11.6,43.93,12.09,41.47,31.2-3.7-2.06-8.87-2.49-14-.76-8.26,2.78-13.25,10.11-11.15,16.35,1.88,5.6,8.85,8.4,16.24,6.91.86-.14,1.71-.36,2.53-.64,14.47-5.24,23.42-19.99,18.58-35.15-5.17-16.19-19.98-23.92-35.92-25.83-18.31-2.21-36,6.11-47.01,20.66-10.35,13.68-8.93,35.16-.66,49.42,9.73,16.76,32.19,23.82,50.4,23.81,20.69-.02,38.22-11.8,51.99-26.23,14.61-15.3,24.82-34.33,35.76-52.24,8.84-14.48,18.84-30.02,32.53-40.6-1.97,29.83,11.29,62.25,36.62,78.04,30.68,19.12,79.03,18.38,104.23-9.75,21.84-24.39,20.14-66.2-5.73-86.4-13.72-10.72-33.19-12.41-49.77-9.48-12.94,2.15-24.18,10.14-30.46,21.66-1.61,2.45-2.84,5.13-3.63,7.95-3.31,11.74,1.18,23.28,10.05,25.78s18.75-4.97,22.07-16.7c2.57-9.11.42-18.08-4.82-22.83,9.03-8.25,21.43-11.73,33.44-9.37,19.09,3.46,27.67,26.46,27.67,43.37,0,18.4-7.2,37.22-22.01,48.57-18.27,14.01-43.31,16.43-64.18,7.25-36.2-15.92-43.67-67.96-31.48-101.17,15.62-42.5,58.33-69.14,102.97-65.39,24.96,2.09,49.8,12.8,66.91,31.24,15.84,17.07,23.68,40.45,25.55,63.31,2.05,25-5.3,47.9-19.61,68.31-11.76,16.78-28.44,32.69-47.92,39.9-3.56,1.33-2.69,5.07-.14,6.42,3.81,2.01,9.93.93,13.45-.38,33.58-12.45,60.68-47.54,68.74-81.73,8.3-35.18-4.61-76.21-30.44-101.25-14.49-16.88-26.56-35.7-35.87-55.91"/>
  </g>
</svg>