<?xml version="1.0" encoding="UTF-8"?>
<svg id="Layer_1" data-name="Layer 1" xmlns="http://www.w3.org/2000/svg" viewBox="0 0 1844.6 29.23">
  <path d="M1836.04.9c-5.88-2.38-13.48.05-16.06,5.98-2.68,6.15,2.43,11.95,8.43,12.33,6.42.41,11.14-7.04,5.58-11.58-4.05-3.31-12.26.95-8.33,6.11.59.83,1.74,1.02,2.58.44.72-.72.72-1.89,0-2.61-.23-.27-.52-.47-.84-.6-.12-1.15.49-2.25,1.52-2.77,2.47-1.3,4.64,1.45,4.78,3.38.23,1.43-.11,2.89-.95,4.07-1.69,1.98-4.51,3.87-7.44,1.31-4.28-3.74-4.25-10.85.79-14.03,6.48-4.08,13.98.53,15.4,7.56,1.1,4.67-.28,9.58-3.66,12.99-4.67,4.41-11.39,6.04-17.35,3.14-3.42-1.66-5.82-4.51-9.04-6.42-6.4-3.81-13.98-4.35-21.27-4.39H0v1.11h1790.14c7.46.04,15.29.58,21.31,5.45,4.99,4.03,10.07,7.29,16.81,6.82,6.69-.48,13.9-4.27,15.79-11.21,1.89-6.94-1.21-14.32-8.01-17.08Z"/>
</svg>