<?xml version="1.0" encoding="UTF-8"?>
<svg id="Layer_1" data-name="Layer 1" xmlns="http://www.w3.org/2000/svg" viewBox="0 0 19.14 11.75">
  <path d="M9.57,1.7C6.49.63,3.26.05,0,0c0,0,0,0,0,0v.45c2.97.04,5.92.56,8.73,1.54-.08.03-.16.05-.24.08-2.78,1.08-5.96,2.98-6.99,5.95-.82,2.37,1.74,4.15,3.88,3.65,1.08-.25,1.96-.75,2.1-1.94.03-1.15-.88-2.1-2.02-2.13-.07,0-.13,0-.2,0-.58,0-1.27.41-.36.52,1.36.16,1.52,1.91.77,2.71-.62.52-1.53.5-2.14-.03-.67-.62-.97-1.56-.77-2.45.31-1.88,2.32-3.46,3.75-4.43.96-.64,1.97-1.18,3.04-1.62,1.08.43,2.12.97,3.08,1.62,1.43.98,3.45,2.56,3.75,4.43.2.9-.1,1.83-.77,2.45-.61.53-1.51.54-2.14.03-.74-.79-.59-2.54.77-2.71.92-.11.22-.52-.36-.52-1.14-.08-2.14.78-2.22,1.92,0,.07,0,.13,0,.2.14,1.19,1.03,1.69,2.1,1.94,2.14.5,4.7-1.28,3.88-3.65-1.03-2.96-4.21-4.87-6.99-5.95-.09-.03-.18-.06-.27-.09,2.81-1.03,5.78-1.55,8.77-1.53v-.45c-3.26.05-6.49.63-9.57,1.7Z"/>
</svg>