<?xml version="1.0" encoding="UTF-8"?>
<svg id="Layer_1" data-name="Layer 1" xmlns="http://www.w3.org/2000/svg" viewBox="0 0 343 13.39">
  <path d="M213.24,7.56h0c-3.43,1.95-7.96,3.48-11.9,2.41-2.51-.75-4.93-1.77-7.22-3.03,2.25-1.19,4.57-2.23,6.96-3.11,4.22-1.5,8.73-.38,12.53,1.78.62.35,2.69.32,1.37-.43-3.18-1.83-6.74-2.92-10.41-3.18-3.51-.25-6.76,1.25-9.87,2.71-.83.39-1.65.8-2.47,1.22-.43-.23-.86-.46-1.29-.69,4.29-2.05,8.72-4.43,13.41-4.56,1.52-.04-.26-.66-.97-.64-4.94.13-9.86,2.17-14.28,4.27C183.7,1.62,177.78.15,171.76,0c-6.46-.14-12.86,1.32-18.61,4.26-4.49-2.12-9.49-4.1-14.49-4.23-1.52-.04.27.62.97.64,4.29.12,8.4,2.24,12.36,4.17l-2.07,1.07c-.49-.26-.99-.51-1.49-.75-2.99-1.46-6.34-3.09-9.73-3.21-3.88-.04-7.7.99-11.04,2.98-.47.27,1.47,1.25,2.1.89,3.43-1.95,7.96-3.49,11.9-2.41,2.51.75,4.93,1.77,7.22,3.03-2.25,1.19-4.57,2.23-6.96,3.11-4.22,1.51-8.73.38-12.53-1.78-.62-.35-2.69-.32-1.37.43,3.18,1.83,6.74,2.92,10.4,3.18,3.51.25,6.76-1.25,9.87-2.71.83-.39,1.65-.8,2.47-1.23.43.23.86.46,1.29.69-4.28,2.05-8.72,4.43-13.4,4.56-1.52.04.26.63.97.61,4.86-.13,9.67-2.33,14.06-4.34,5.45,2.75,11.44,4.26,17.54,4.4,6.46.14,12.86-1.32,18.61-4.26,4.49,2.11,9.49,4.07,14.49,4.2,1.52.04-.27-.59-.97-.61-4.29-.12-8.4-2.24-12.36-4.17l2.07-1.07c.49.26.99.51,1.49.75,2.99,1.46,6.34,3.09,9.73,3.21,3.88.04,7.7-.99,11.04-2.98.47-.27-1.47-1.25-2.1-.89ZM158.91,3.5h0c3.79-1.46,7.8-2.26,11.87-2.35,4.52-.21,9.03.47,13.29,1.99,1.33.5,2.63,1.07,3.9,1.7-.93.44-1.88.83-2.83,1.19-4.55-1.54-9.32-2.32-14.13-2.31-4.73-.05-9.43.73-13.9,2.29-.65-.25-1.29-.52-1.93-.8,1.22-.61,2.46-1.2,3.73-1.71ZM183.59,6.58c-4.06,1.34-8.31,2.03-12.58,2.05-4,.02-7.97-.61-11.77-1.86,4.12-1.31,8.42-1.99,12.74-2,3.94-.02,7.86.59,11.61,1.81ZM153.18,7.62h0c-.45-.23-.9-.47-1.35-.7.72-.37,1.44-.75,2.16-1.12.57.26,1.13.51,1.7.75-.14.05-.28.1-.42.16-.69.28-1.39.59-2.09.92ZM184.09,9.9h0c-3.79,1.46-7.81,2.26-11.87,2.35-4.52.21-9.03-.47-13.29-1.99-1.4-.53-2.77-1.13-4.1-1.8.95-.43,1.9-.8,2.86-1.16,4.6,1.58,9.43,2.38,14.3,2.37,4.73.05,9.43-.73,13.9-2.29.65.25,1.29.52,1.93.81-1.22.61-2.45,1.2-3.73,1.71ZM189.02,7.59c-.57-.26-1.14-.51-1.7-.75.14-.05.28-.1.42-.16.69-.28,1.39-.59,2.09-.92.45.23.9.47,1.35.71-.72.37-1.44.75-2.16,1.11Z"/>
  <path d="M142.8,6.47h0c-8.17-.02-142.8-.05-142.8-.05v.97s135.28.03,143.32.05c1.6,0,.49-.97-.52-.97Z"/>
  <path d="M207.66,6.42c-2.59,0-5.56-.39-8.12.12-1.17.23,1.01.96,1.58.84-.76.15-.16.05.22.04.59,0,1.17-.01,1.76-.02,1.89-.01,139.9.02,139.9.02v-.97s-129.73-.04-135.34-.04Z"/>
</svg>