<?xml version="1.0" encoding="UTF-8"?>
<svg id="Layer_1" data-name="Layer 1" xmlns="http://www.w3.org/2000/svg" viewBox="0 0 225.15 43.26">
  <g id="Group_25" data-name="Group 25">
    <path id="Path_222" data-name="Path 222" d="M219.62,22.7c.01.06.02.12.02.18l.05.88c0,.18-.02.37-.05.55-.03.18-.05.37-.07.55s-.04.37-.07.55c-.02.12-.04.25-.05.37v-.05c-.03.2-.05.4-.05.6-.12,1.23-.5,1.84-1.15,1.84-.65,0-1.28-.23-1.79-.64-.31-.25-.48-.62-.46-1.01.08-.89.45-1.73,1.05-2.39.37-.37.77-.7,1.19-1.01.12-.13.26-.24.41-.32.24-.28.54-.5.87-.64.04.1.05.21.05.32,0,.08,0,.15.02.23M218.86,17.73l-.05-.05c.26.42.47.87.64,1.33-.05.4-.23.77-.5,1.06-.44.39-.96.69-1.51.88-.12.03-.6.23-1.42.6l-.28.09c-1.19.56-2.24,1.38-3.07,2.39-.35.49-.55,1.06-.6,1.66,0,.09,0,.21-.02.37s-.02.25-.02.28v.55c-.06.13-.09.27-.09.41,0,.05.01.09.02.14.01.06.03.15.05.27.01.12.04.25.07.37v.09l.05.09c0,.11.01.22.05.32.04.45.24.87.55,1.2.93,1.01,2.24,1.6,3.62,1.61,1.21-.05,2.38-.38,3.44-.97h-.05c.15-.06.21-.11.18-.14l.14.09c.07.04.13.08.18.14,0,.03.03.06.09.09l.09.05.6.46c.33.17.69.27,1.05.27.96-.08,1.82-.63,2.29-1.47.39-.37.67-.85.78-1.38,0-.21-.08-.41-.23-.55l-.87-.37s-.12-.09-.28-.27c-.32-.32-.56-.72-.69-1.15-.03-.34-.05-.74-.05-1.2l.05-5.66s0-.11.02-.23c.01-.09.02-.18.02-.27v-.28c.02-.71-.17-1.42-.55-2.02-.52-.94-1.32-1.7-2.29-2.16-.79-.23-1.61-.33-2.43-.27-.47,0-.92.14-1.33.37l-.5.27.05-.05c-.55.17-1.08.42-1.56.74l.05-.05c-.65.51-1.02,1.29-1.01,2.12,0,.95.4,1.43,1.19,1.43.41-.06.79-.23,1.1-.51.31-.22.6-.47.87-.74.09-.05.16-.11.23-.18l.09-.18.14-.18.55-.09h.46c.24.21.47.44.69.69M205.24,9.16c-.28.44-.45.95-.5,1.47.03.34.07.68.14,1.01-.01.47.26.9.69,1.1h-.04c.46.37,1.01.6,1.6.65.61-.04,1.16-.41,1.42-.97.42-.45.66-1.04.69-1.66.02-.7-.28-1.36-.83-1.8-.49-.38-1.08-.59-1.7-.6-.59-.02-1.16.28-1.47.78M206.06,15.04c-.37.25-.69.44-.96.6-.55.16-.92.67-.92,1.24.02.27.06.53.14.78.34.24.66.5.96.78.07.1.12.21.14.32,0,.08-.01.15-.02.23-.01.06-.02.12-.02.18,0,.15,0,.31-.05.46l-.05.46v-.04c-.06.27-.09.55-.09.83v.14c.06.61.11,1.09.14,1.43l-.05,3.08-.14,1.29v1.38l-.09.05c-.03.09-.07.17-.14.23-.4.55-.61.84-.64.87-.14.18-.21.41-.18.65-.09.55.28,1.06.83,1.15.01,0,.03,0,.04,0l1.38-.14h.23c.24,0,.49.01.73.05.05,0,.11.01.16.02.07.02.14.02.21.02.24.03.49.05.73.05,1.07,0,1.6-.35,1.6-1.06-.12-.54-.33-1.06-.64-1.52-.3-.6-.45-1.26-.46-1.93l-.09-.65v-3.36l-.09-1.15v-1.15s0-.11.02-.25c.01-.11.02-.23.02-.35,0-.1.01-.2.02-.3.01-.14.02-.24.02-.3.03-.34.05-.77.05-1.29v-.6l-.05-.37c.09-.73.14-1.22.14-1.47,0-.92-.32-1.38-.96-1.38-.69.23-1.34.58-1.93,1.01M195.71,18.69c.12.43.19.88.18,1.34l.14,1.24-.09.78c-.03.12-.05.24-.05.37l.05,2.07c-.05.79-.29,1.57-.69,2.26-.43.91-1.38,1.45-2.38,1.38-.83.06-1.63-.33-2.11-1.01-.59-.82-.92-1.8-.96-2.81-.09-1.35.05-2.7.41-4.01.32-.81.94-1.46,1.74-1.8.71-.24,1.45-.36,2.2-.37.57-.03,1.13.17,1.56.55M192.73,14.08c-.12.03-.28.07-.46.11-.11.03-.21.05-.32.07h.05c-1.4.23-2.7.89-3.71,1.89-1.5,1.6-2.25,4.14-2.25,7.64-.03.96.19,1.91.64,2.76v-.05c.32.74.7,1.45,1.15,2.12l-.05-.04c.39.57.83,1.09,1.33,1.57.48.32,1.01.57,1.56.74.51.19,1.05.3,1.6.32l.96-.18h-.05l.78-.05c.38-.12.75-.27,1.1-.46l.83-.41.32.51c.41.34.94.51,1.47.46h.41c.08,0,.15,0,.23-.02.06-.01.12-.02.18-.02.08,0,.16.01.23.05l.14.05h.18c.24.03.49.05.73.05.98,0,1.47-.37,1.47-1.1-.06-.46-.23-.91-.5-1.29l.05.05-.32-.69-.46-.78.05.05c-.06-.23-.09-.46-.09-.69l.05-12.8.05-1.84c0-.34.01-.68.05-1.01,0-.11,0-.22.02-.32.01-.08.02-.15.02-.23,0-.28-.03-.81-.09-1.61-.03-.43-.05-.97-.05-1.61,0-.09,0-.18.04-.27.12-.98.21-1.67.28-2.07.02-.73.11-1.45.27-2.16.06-.26.09-.52.09-.78.08-.61-.35-1.17-.97-1.25-.11-.01-.21-.01-.32,0-.63.04-1.22.28-1.7.69l.05-.05c-.59.39-1.22.71-1.88.97-.26.21-.56.38-.87.51-.41.27-.66.71-.69,1.2-.04.37.12.74.41.97l1.01.64c.18.2.28.47.28.74v1.38c0,.37,0,.73.05,1.1,0,.09,0,.22.02.39s.02.28.02.35c0,.25-.02.49-.04.74-.06.61-.09,1.12-.09,1.52l-.05.97v-.04l-.09,1.24c0,.25,0,.49.05.73v.23c-.57-.7-1.43-1.11-2.34-1.1l-.82.17ZM179.89,17.08c.43.36.71.87.78,1.43,0,.12-.23.18-.69.18-1.27.04-2.54-.02-3.81-.18-.05-.05-.09-.11-.09-.18.02-.36.17-.7.41-.97.41-.51,1.04-.81,1.7-.78.61-.03,1.21.15,1.7.51M175.03,15.74c-.51.65-.99,1.33-1.43,2.03v-.09c-.8,1.23-1.27,2.64-1.38,4.1-.18,1.08-.27,1.68-.27,1.8.11,1.01.34,1.99.69,2.94.49.86,1.02,1.69,1.6,2.49.32.56.76,1.05,1.28,1.43l.14.05c.06.03.14.07.25.11.08.04.16.06.25.07l.46.23c.6.25,1.23.42,1.88.51.92.05,1.84-.09,2.7-.41.8-.46,1.27-.74,1.42-.83.12-.09.25-.19.39-.3s.22-.18.25-.21c.4-.44.69-.98.82-1.57h-.05c.01-.1.04-.19.09-.27.14-.22.22-.48.23-.74,0-.52-.25-.78-.73-.78-.16,0-.31.03-.46.09-.32.17-.66.31-1.01.41-.79.21-1.61.34-2.43.37-.45,0-.9-.08-1.33-.23v.05c-.52-.26-1-.6-1.42-1.01-.61-.45-1.12-1.01-1.51-1.66-.03-.06-.12-.66-.27-1.8-.03-.23-.04-.46-.05-.69,0-.31.05-.49.14-.55.32-.31.75-.48,1.19-.46.18,0,.69.05,1.51.14h-.04c.3.04.61.06.92.05h.64c.26,0,.52-.01.78-.05.03,0,.11,0,.23-.02s.2-.02.23-.02c.34-.03.72-.05,1.15-.05l.18.05h.27c.21.04.43.05.64.05,1.16,0,1.74-.66,1.74-1.98-.05-.89-.43-1.72-1.05-2.35-1.18-1.5-2.96-2.41-4.86-2.48-1.43.03-2.79.61-3.81,1.61M145.49,21.55c-.04-.16-.06-.32-.07-.48-.01-.23-.02-.41-.02-.53,0-.25,0-.61.02-1.08s.04-.82.07-1.03c0-.18,0-.39.02-.62s.03-.41.05-.53.02-.2.02-.23c0-.49-.01-.95-.05-1.38l.05-1.66v.05l.23-1.98-.09-1.98s.02.07.05.09c.02.08.06.16.09.23,0,.13.07.25.18.32l.05.09c.02.05.05.1.09.14l-.05-.04c.77,1.33,1.4,2.73,1.88,4.19v-.05c.3,1.33.77,2.62,1.42,3.82.28.46.72,1.24,1.33,2.35.55,1.17.99,2.23,1.33,3.18.92,2.15,1.39,3.25,1.42,3.32h-.05c.15.81.39,1.6.73,2.35.31.52.64.78,1.01.78.32-.02.61-.19.78-.46.04-.13.1-.26.18-.37.37-.89.6-1.47.69-1.75v.05l.87-1.8c.49-1.53.78-2.39.87-2.58v.05c.15-.28.31-.56.46-.85.15-.29.27-.51.34-.65.05-.08.09-.16.11-.25.58-2.05.92-3.28,1.01-3.68l-.05.09c.15-.33.52-1.12,1.1-2.35.16-.77.44-1.52.83-2.21l.6-.78c.24-.42.42-.87.55-1.33.09-.25.23-.57.41-.97l.18-.55v.05c0,.37-.04.98-.14,1.84v.19c-.06.61-.09,1.01-.09,1.2v.14l.09.83c.09.64.13,1.29.14,1.93l.05,1.7c.06.49.11.8.14.92-.05.15-.08.3-.09.46-.04.24-.05.49-.05.74,0,.11,0,.22-.02.32-.02.12-.02.2-.02.23v-.05l-.04.69-.05.78c-.09,1.5-.14,2.59-.14,3.27v.46c-.03.27-.11.54-.23.78-.48.69-1.11,1.27-1.83,1.7-.24.18-.41.31-.5.37-.44.24-.74.69-.78,1.2,0,.58.44.87,1.33.87h.96c.12,0,.3,0,.53-.02s.38-.02.44-.02l2.8.05c.23,0,.46-.02.69-.05h2.24l.92.09h.14c.64,0,.96-.38.96-1.15.02-.45-.19-.88-.55-1.15l-1.05-.6c-.24-.53-.43-1.09-.55-1.66-.14-.47-.25-.94-.32-1.43v-.78c0-.12,0-.27.02-.46s.02-.31.02-.37l-.05-3.54v-1.99c.03-.37.05-1.69.05-3.96v-.46c0-.09-.03-.54-.09-1.34-.03-.65-.05-1.55-.05-2.72.03-1.44.09-2.65.18-3.64,0-.53.08-1.06.23-1.57.19-.59.58-1.09,1.1-1.43l.87-.37-.09.05c.4-.09.6-.4.6-.92-.02-.29-.13-.56-.32-.78-.25-.37-.65-.63-1.1-.69h-.09l-1.38.04h-.09c-.4-.06-.8-.09-1.2-.09-.83-.04-1.66,0-2.48.14-.5.2-.9.6-1.1,1.1v-.04c-.1.19-.18.39-.23.6l-.14.42c-.34,1.01-.66,1.92-.96,2.71l-.73,1.7-.69,2.21h.05l-1.15,3.23v-.05l-.78,2.03-.41,1.06-.28.65c-.46,1.33-1.06,2.61-1.79,3.82-.09.15-.17.28-.23.37-.4.68-.69,1.01-.87,1.01l-.09-.23h.05c-.18-.51-.41-1.01-.69-1.47-.24-.43-.46-.79-.64-1.08-.18-.29-.32-.5-.41-.62s-.14-.17-.14-.14c-.06-.21-.14-.46-.23-.74s-.16-.49-.21-.65c-.03-.11-.07-.22-.12-.32-.23-.46-.41-.94-.55-1.43,0-.06-.02-.13-.05-.19-.03-.06-.05-.12-.05-.18-.15-.46-.24-.72-.28-.78-.04-.07-.06-.15-.05-.23-1.22-2.35-2.21-4.82-2.93-7.37-.25-1.14-.4-2.29-.46-3.45-.09-.55-.15-.94-.18-1.15-.15-.63-.72-1.08-1.38-1.06-.21,0-.43.01-.64.05h.05c-.79.1-1.59.16-2.38.18-.17,0-.33-.02-.5-.04-.12,0-.28,0-.48-.02s-.34-.02-.44-.02c-.15,0-.32,0-.48-.02s-.27-.02-.3-.02h-1.15c-.34.03-.59.05-.78.05-.56.05-.97.54-.92,1.09,0,.02,0,.04,0,.06.05.63.44,1.2,1.01,1.47.59.3,1.14.67,1.65,1.1.25.48.38,1.02.37,1.57,0,.34,0,.75.02,1.24.02.49.02.83.02,1.01-.03.81,0,1.63.09,2.44l-.05-.05c.19.97.32,1.96.37,2.95l-.27,5.11c-.09,2.52-.14,4.36-.14,5.52v.87c-.18,2.06-.8,3.35-1.84,3.87-.43.19-.82.45-1.15.78-.12.19-.19.42-.18.65.02.55.39,1.04.92,1.2,1.12.15,2.26.21,3.39.18.67.03,1.31.05,1.93.05.06,0,.18,0,.37.02s.31.02.37.02c.35.03.7.05,1.05.05,1.04,0,1.56-.32,1.56-.97,0-.4-.35-.89-1.05-1.47-.75-.4-1.37-1.01-1.79-1.75-.32-.84-.52-1.73-.6-2.62v-2.07l-.1-.92ZM118.31,17.08c.43.36.71.87.78,1.43,0,.12-.23.18-.69.18-1.27.04-2.54-.02-3.8-.18-.05-.05-.09-.11-.09-.18.02-.36.17-.7.41-.97.41-.52,1.04-.81,1.7-.78.61-.03,1.21.15,1.7.51M113.46,15.74c-.51.65-.98,1.33-1.42,2.02v-.09c-.8,1.23-1.27,2.64-1.38,4.1-.18,1.08-.28,1.68-.28,1.8.11,1.01.34,1.99.69,2.94.49.85,1.02,1.68,1.6,2.48.32.56.76,1.05,1.29,1.43l.14.05c.06.03.14.07.25.11.08.04.17.06.25.07l.46.23c.6.25,1.23.42,1.88.51.92.05,1.84-.09,2.71-.41.8-.46,1.27-.74,1.42-.83.12-.09.25-.19.39-.3s.22-.18.25-.21c.4-.44.69-.98.83-1.57h-.05c.01-.1.04-.19.09-.27.14-.22.21-.48.23-.74,0-.52-.24-.78-.73-.78-.16,0-.32.03-.46.09-.32.17-.66.31-1.01.41-.79.21-1.61.34-2.43.37-.45,0-.9-.08-1.33-.23v.05c-.52-.26-1-.6-1.42-1.01-.61-.45-1.12-1.01-1.51-1.66-.03-.06-.12-.66-.28-1.8-.03-.23-.04-.46-.05-.69,0-.31.05-.49.14-.55.32-.31.75-.48,1.19-.46.18,0,.69.05,1.51.14h-.05c.3.04.61.06.92.05h.64c.26,0,.52-.01.78-.05.03,0,.11,0,.23-.02s.2-.02.23-.02c.33-.03.72-.05,1.15-.05l.18.05h.28c.21.04.43.05.64.05,1.16,0,1.74-.66,1.74-1.98-.05-.89-.43-1.72-1.06-2.35-1.18-1.5-2.95-2.41-4.86-2.48-1.43.03-2.79.61-3.81,1.61M104.87,18.6c.27-.86.53-1.33.78-1.43l.09.09c.3.5.66.96,1.06,1.38.36.38.85.6,1.38.6.4.01.79-.16,1.06-.46.54-.51.83-1.24.78-1.99.02-.8-.26-1.59-.8-2.19-.51-.59-1.26-.92-2.04-.9-.09,0-.55.09-1.38.28-.46.18-.72.29-.78.32-.26.2-.54.38-.83.55l-.46-1.15c-.51.14-1,.37-1.42.69-.44.37-.92.69-1.42.97-.09.08-.19.14-.3.19-.09.03-.17.08-.25.14h.05c-.12.06-.34.18-.64.37-.36.21-.59.59-.6,1.01-.04.47.24.9.69,1.06l.37.18h-.05l.37.18-.09-.05c.33.49.5,1.07.5,1.66.06,1.26.11,2.23.14,2.9v-.05l.05,1.47v.18c-.12,1.53-.2,2.65-.23,3.36-.01.18-.09.34-.23.46l-.87.87c-.15.2-.23.44-.23.69,0,.71.63,1.07,1.88,1.1h.05c.28,0,.55-.02.83-.05l.69-.05h.18c1.19.12,1.97.18,2.34.18.92,0,1.38-.34,1.38-1.01,0-.49-.47-1.03-1.42-1.61-.53-.3-.85-.87-.83-1.47,0-.21-.03-.63-.09-1.24-.06-.61-.09-1-.09-1.15,0-.06.01-.12.02-.18.02-.09.02-.18.02-.27,0-.43.02-.8.05-1.1v-2.07c0-.84.1-1.68.32-2.49M91.52,18.46c.4.86.66,1.48.78,1.84h0l.6,1.47c.08.24.11.49.09.74-.01,1.05-.2,2.09-.55,3.08-.19.97-.77,1.81-1.6,2.35-.66.37-1.4.6-2.15.65-.03,0-.46-.25-1.28-.74l-1.01-.55c-.29-.16-.53-.4-.69-.69l.05.14c-.05-.12-.1-.24-.14-.37-.06-.18-.11-.32-.14-.42l.05.05c-.02-.07-.05-.13-.09-.18-.03-.04-.05-.09-.05-.14-.3-.63-.5-1.29-.6-1.98-.03-.31-.05-.97-.05-1.98-.03-.88.11-1.75.41-2.58v.05c.42-.82,1.02-1.54,1.74-2.12h-.05c.35-.19.75-.27,1.15-.23,1.38-.11,2.71.5,3.53,1.61M93.45,29.93h-.04c1.05-.62,1.9-1.53,2.43-2.63.88-1.65,1.37-3.47,1.42-5.34.07-1.77-.52-3.51-1.65-4.88v.05l-.59-.78c-.46-.6-1.08-1.06-1.79-1.33-.8-.37-1.36-.61-1.7-.74h.09c-.7-.08-1.4-.11-2.11-.09-.72.02-1.44.1-2.15.23-.62.2-1.24.43-1.83.69-1.96.81-3.54,2.34-4.4,4.28v-.05c-.28.62-.39,1.3-.32,1.98v2.35c.07,1.84.88,3.56,2.25,4.79.59.53,1.21,1,1.88,1.43,1.41.95,3.07,1.46,4.77,1.47.7,0,1.39-.12,2.06-.32l.05-.05c.58-.3,1.13-.66,1.65-1.06M75.48,24.21c.02,1.4-.47,2.75-1.37,3.82-.27.44-.73.73-1.24.78h-.09c-.06,0-.12,0-.18-.02-.04-.01-.09-.02-.14-.02h-.78c-1.01-.03-1.65-.24-1.93-.65l.05.09-.28-.83c-.12-.15-.2-.32-.23-.51l.05.14v-.97l-.09-.87v-2.44l.04-.74-.05-1.15s0-.11.02-.23c.01-.09.02-.18.02-.27l.23-2.02c.18-.55.76-.83,1.74-.83,2.81,0,4.22,2.24,4.22,6.72M68.92,12.94c-.85.05-1.63.49-2.11,1.2-.22.36-.5.69-.82.97l.09-.05c-.59.29-1.16.63-1.7,1.01-.37.25-.6.66-.64,1.1,0,.52.18.84.55.97.27.11.53.23.78.37l-.09-.05c.2.19.34.43.41.69l-.13,1.15-.05,2.21-.04,1.1c0,.18.01.37.04.55v-.05c.04.29.05.58.05.87l.05,1.15.09,1.15v.14s-.03.2-.09.51c-.03.21-.05.43-.05.65l.05.78-.05,1.75v.51c0,.18,0,.45.02.81s.02.59.02.71c.03.43.05.9.05,1.43,0,.04.02.07.05.09v.05l-.14,1.84c0,.09,0,.24-.02.44s-.02.36-.02.48c-.03.55-.04,1.23-.04,2.03l.04-.14-.37,1.1c-.24.31-.52.59-.82.83-.3.17-.51.48-.55.83,0,.71.47,1.06,1.42,1.06h.5c.1,0,.2,0,.3-.02.07-.01.14-.02.21-.02.29.01.58.04.87.09.32.03.64.05.96.05.13-.02.25-.05.37-.09l-.09.06c.92-.09,1.49-.14,1.7-.14h.55c.09,0,.22,0,.39.02s.28.02.34.02c.73,0,1.1-.32,1.1-.97,0-.49-.18-.78-.55-.87h.05c-.58-.25-.92-.38-1.01-.41-.08-.08-.17-.14-.27-.19-.59-.39-.93-1.05-.92-1.75l.05-4.37-.14-1.52.05-.55c0-.28,0-.55.02-.81s.02-.45.02-.58v-.14l2.43.55.96-.09c.47-.04.93-.13,1.38-.27.39-.14.76-.33,1.1-.55,0-.03.03-.06.09-.09l.09-.05c.9-.62,1.69-1.38,2.34-2.26.81-1.02,1.32-2.25,1.47-3.54v-.14l-.05-1.15v-2.94c-.06-.33-.14-.65-.23-.97h.05c-.2-.79-.46-1.55-.78-2.3h0c-.12-.36-.28-.7-.5-1.01l.05.05c-.48-.74-1.17-1.31-1.97-1.66-1.11-.56-2.34-.85-3.58-.83-.82-.01-1.61.26-2.25.78.03-.14.05-.27.04-.41,0-.77-.37-1.15-1.1-1.15M56.71,22.7c.01.06.02.12.02.18l.04.88c0,.18-.02.37-.04.55-.03.18-.06.37-.07.55s-.04.37-.07.55c-.02.12-.04.25-.05.37v-.05c-.03.2-.05.4-.05.6-.12,1.23-.51,1.84-1.15,1.84-.65,0-1.28-.23-1.79-.64-.31-.25-.48-.62-.46-1.01.08-.89.45-1.73,1.06-2.39.37-.37.77-.7,1.19-1.01.12-.13.26-.24.41-.32.24-.28.54-.5.87-.64.04.1.05.21.05.32,0,.08,0,.15.02.23M55.95,17.73l-.05-.05c.26.42.47.87.64,1.33-.05.4-.23.77-.5,1.06-.44.39-.96.69-1.51.88-.12.03-.6.23-1.42.6l-.27.09c-1.19.56-2.24,1.38-3.07,2.39-.35.49-.55,1.06-.6,1.66,0,.09,0,.21-.02.37s-.02.25-.02.28v.55c-.06.13-.09.27-.09.41,0,.05,0,.09.02.14.02.09.04.18.05.27.02.12.04.25.07.37v.09l.05.09c0,.11.01.22.05.32.04.45.23.87.55,1.2.93,1.01,2.25,1.6,3.62,1.61,1.21-.05,2.38-.38,3.44-.97h-.05c.15-.06.21-.11.18-.14l.14.09c.07.04.13.08.18.14,0,.03.03.06.09.09l.09.05.6.46c.33.17.69.27,1.06.27.96-.08,1.82-.63,2.29-1.47.39-.37.66-.85.78-1.38,0-.21-.08-.41-.23-.55l-.87-.37s-.12-.09-.27-.27c-.32-.32-.56-.72-.69-1.15-.03-.34-.05-.74-.05-1.2l.05-5.66s0-.11.02-.23c.01-.09.02-.18.02-.27v-.28c.02-.71-.17-1.42-.55-2.02-.52-.94-1.32-1.7-2.29-2.16-.79-.23-1.61-.33-2.43-.27-.47.01-.92.14-1.33.37l-.5.27.05-.05c-.55.17-1.08.42-1.56.74l.05-.05c-.65.51-1.02,1.29-1.01,2.12,0,.95.4,1.43,1.19,1.43.41-.06.79-.23,1.1-.51.31-.22.6-.47.87-.74.09-.05.16-.11.23-.18l.09-.18.14-.18.55-.09h.46c.25.21.48.44.69.69M45.31,2.12l-.37-.09c-.4-.12-.5-.25-.32-.37-.15.12-.46.34-.92.64v-.05l-.96.64c-.25.31-.54.57-.87.78-1.13.62-1.7,1.22-1.7,1.8s.15.92.46,1.01h-.09l.92.55c.12.14.21.29.28.46v-.05c.13.37.21.76.23,1.15l.32,1.15v-.05c.04.3.06.61.05.92,0,.98-.02,1.7-.05,2.16v.69l-.05.41v1.7c.03.34.07.68.14,1.01v.23s-.01.09-.02.14c-.01.05-.02.09-.02.14v-.05c-.1.73-.16,1.47-.18,2.21v.41c.04.18.05.37.05.55v1.52l.14,1.84-.05.41-.05.51-.14,1.29c.01.45-.02.9-.09,1.34l.05-.05-.46.92.05-.05-.37.6.05-.05-.73.87c-.19.25-.29.56-.27.87,0,.55.32.83.96.83.26,0,.52-.01.78-.05l.09-.05h.23l.78.05h.32c.12,0,.29,0,.5-.02s.35-.02.41-.02h1.33c.46,0,.92,0,1.38-.05.4-.09.6-.41.6-.97,0-.3-.07-.6-.18-.88l-.55-.51-.18-.27c-.21-.65-.37-1.07-.46-1.29h0c0-.09-.02-.17-.05-.25-.03-.08-.04-.17-.04-.25-.06-.4-.12-.87-.18-1.43-.15-1.1-.23-1.69-.23-1.75,0-.15.05-.55.14-1.2v-.46l-.09-2.94c-.01-1.31-.14-2.62-.37-3.91h.23l.14-4.14v.05l.05-.46-.09-2.39v-.09c.03-.46.05-.94.05-1.43,0-.11,0-.22.02-.32.01-.09.02-.18.02-.28v-.41c0-.1.02-.2.05-.3.03-.11.05-.19.07-.25.01-.05.02-.09.02-.14v-.14l-.09-1.24c.1-.34.16-.7.18-1.06,0-.67-.28-1.01-.83-1.01v.88ZM34.21,17.08c.43.36.71.87.78,1.43,0,.12-.23.18-.69.18-1.27.04-2.54-.02-3.81-.18-.05-.05-.09-.11-.09-.18.02-.36.17-.7.41-.97.41-.51,1.04-.81,1.7-.78.61-.03,1.21.15,1.7.51M29.35,15.74c-.51.65-.98,1.33-1.42,2.02v-.09c-.8,1.23-1.27,2.64-1.38,4.1-.18,1.08-.27,1.68-.27,1.8.11,1.01.34,1.99.69,2.94.49.85,1.03,1.68,1.61,2.48.32.56.76,1.05,1.28,1.43l.14.05c.06.03.15.07.25.11.08.04.16.06.25.07l.46.23c.6.25,1.23.42,1.88.51.92.05,1.84-.09,2.71-.41.79-.46,1.27-.74,1.42-.83.12-.09.25-.19.39-.3s.22-.18.25-.21c.4-.44.69-.98.83-1.57h-.05c.01-.1.04-.19.09-.27.14-.22.22-.48.23-.74,0-.52-.24-.78-.73-.78-.16,0-.31.03-.46.09-.32.17-.66.31-1.01.41-.79.21-1.61.34-2.43.37-.45,0-.9-.08-1.33-.23v.05c-.52-.26-1-.6-1.42-1.01-.61-.45-1.12-1.01-1.52-1.65-.03-.06-.12-.66-.27-1.8-.03-.23-.04-.46-.05-.69,0-.31.05-.49.14-.55.32-.31.75-.48,1.19-.46.18,0,.69.05,1.52.14h-.05c.3.04.61.06.92.05h.64c.26,0,.52-.01.78-.05.03,0,.11,0,.23-.02s.2-.02.23-.02c.34-.03.72-.05,1.15-.05l.18.05h.27c.21.04.43.05.64.05,1.16,0,1.74-.66,1.74-1.98-.05-.89-.43-1.72-1.06-2.35-1.18-1.5-2.96-2.41-4.86-2.48-1.43.03-2.79.61-3.81,1.61M13.26,3.41h-.04c.33.18.82.47,1.47.87h-.05c.43.31.7.51.82.6l-.09-.05.27.14c.66.34,1.28.75,1.83,1.24.58.82,1.1,1.68,1.56,2.58.12.25.25.49.39.74s.25.43.32.55c.05.07.09.15.11.23v.23c.06.92.09,1.49.09,1.7l.05,1.24.14,1.2c0,.16-.03.57-.09,1.24,0,.17-.02.34-.05.51-.03.22-.05.4-.07.55s-.02.29-.02.41l-.32,1.8c-.03.25-.07.56-.12.94s-.07.59-.07.62c0,.07,0,.14-.02.21-.01.05-.02.11-.02.16-.06.34-.17.66-.32.97-.11.16-.24.31-.37.46-.18.25-.31.41-.37.51-.2.28-.39.57-.55.87l-.27.41c-.04.08-.1.15-.16.21l-.16.16.05-.05c-.13.13-.26.27-.37.41l-1.01,1.2c-.24.3-.5.57-.78.83-.76.28-1.18.43-1.24.46l-1.01.23-1.42.23c-.27.06-.54.13-.78.21s-.41.13-.5.16l-.14.05c-.59-.02-1.14-.31-1.49-.78-.42-.45-.65-1.05-.67-1.66,0-.06.02-.13.05-.18v-.28c.06-.61.09-1.07.09-1.38-.02-.39-.07-.77-.14-1.15,0-.23-.01-.46-.05-.69l.05-1.15.05-1.1v.05c.06-.52.11-1.07.14-1.66l-.18-2.12v-.18c0-.08.01-.16.05-.23.03-.67.04-1.58.05-2.72,0-.18,0-.38.02-.6s.04-.45.07-.71c.03-.21.04-.41.05-.62.06-.49.09-.78.09-.88v-.83c-.21-.92-.32-1.41-.32-1.47.18-.98.3-1.83.37-2.53.09-1.57,1.28-2.35,3.58-2.35.51,0,1.02.05,1.51.18M.19,1.57c0,.46.22.89.6,1.15.08.08.18.15.27.21.07.05.15.09.23.12l.37.28-.09-.05c.23.24.43.5.6.78.06.16.2.66.41,1.52.03.18.07.6.14,1.24.06.61.09.95.09,1.01-.03.34-.07.68-.14,1.01-.06.53-.09,1.07-.09,1.61,0,.37.01.8.04,1.29.06,1.04.09,1.8.09,2.26v2.2c0,.48.02.96.09,1.43v.05c0,.63-.02,1.26-.09,1.89v1.1c.06.86.09,1.44.09,1.75,0,.09-.03.51-.09,1.24-.1.52-.16,1.04-.18,1.57v.37c.08.91-.28,1.8-.96,2.4-.17.15-.35.27-.55.37-.12.06-.26.14-.41.23l-.18.09h.04c-.32.25-.5.65-.46,1.06,0,.86.37,1.3,1.1,1.34l.73-.05,1.56.05,1.24-.05c.4.03.85.05,1.38.05.52-.01,1.04,0,1.56.05.12.03.24.05.34.07.12.02.23.04.34.07.07.02.15.04.23.04.15.03.31.05.46.05.04,0,.08,0,.11-.02.05-.02.11-.03.16-.02.21-.01.41-.06.6-.14l.46.05s.12,0,.28-.02.27-.02.37-.02c.67-.03,1.22-.05,1.65-.05.91-.16,1.81-.42,2.66-.78.09-.04.18-.07.27-.09.12-.03.23-.06.32-.09.08-.03.15-.06.23-.09h-.05c.95-.3,1.89-.65,2.8-1.06l.64-.37c.06-.05.13-.1.21-.14.11-.06.19-.11.25-.14l-.05.05c.63-.45,1.23-.94,1.79-1.47.57-.7,1.06-1.46,1.47-2.26.52-.86.81-1.37.87-1.52.2-.43.36-.87.46-1.34.43-1.2.69-2.46.78-3.73v-4.64c-.03-.96-.12-1.91-.27-2.86-.24-1.03-.54-2.05-.92-3.04-.58-.88-1.26-1.7-2.02-2.44-.76-1.02-1.73-1.87-2.84-2.48l.09.09-.64-.6-.32-.18c-1.01-.7-2.12-1.23-3.3-1.57-1.47-.06-2.69-.11-3.67-.14-.15,0-.34,0-.57-.02s-.39-.02-.48-.02c-.37.02-.74,0-1.1-.05l-2.52.14c-.6.16-1.22.28-1.84.37-.09,0-.19-.01-.28-.04h-.05c-.65-.16-1.31-.24-1.97-.23C.97.37.19.77.19,1.57"/>
  </g>
</svg>