<?xml version="1.0" encoding="UTF-8"?>
<svg id="Layer_1" data-name="Layer 1" xmlns="http://www.w3.org/2000/svg" viewBox="0 0 225.14 57.23">
  <g id="Group_25" data-name="Group 25">
    <path id="Path_221" data-name="Path 221" d="M221.93,56.54c-.36.21-.78.32-1.2.29-.25,0-.5-.02-.74-.09-.17-.04-.34-.12-.49-.22-.11-.08-.21-.18-.27-.31-.05-.11-.08-.23-.08-.35-.01-.24.07-.48.24-.66.22-.2.5-.33.79-.37.4,0,.74,0,1.04.03s.5.03.59.05c.16.03.31.12.41.25.09.14.14.31.13.48.02.35-.14.69-.44.89M221.13,52.28c-.15.23-.41.37-.68.36-.27,0-.51-.14-.65-.36-.18-.28-.26-.61-.25-.94,0-.17.01-.34.04-.5.02-.14.07-.28.15-.41.07-.12.16-.22.28-.29.13-.07.27-.1.42-.1.28,0,.54.13.69.36.18.29.26.63.24.97.01.32-.07.64-.24.91M222.33,54.11c-.15-.07-.31-.11-.48-.12-.11,0-.3-.01-.56-.03s-.47-.03-.62-.03-.28,0-.41-.01c-.12,0-.23-.02-.35-.05-.1-.02-.19-.07-.26-.14-.08-.08-.12-.18-.11-.29,0-.11.04-.23.13-.3.07-.07.16-.12.25-.15h.62c.47,0,.92-.16,1.27-.47.35-.28.55-.7.55-1.14,0-.18-.03-.36-.09-.53-.06-.18-.16-.35-.28-.49v-.03h1.2v-.5h-1.78c-.16-.05-.32-.09-.47-.12-.15-.03-.31-.05-.46-.05-.5-.02-1,.15-1.38.47-.35.29-.55.73-.54,1.19,0,.3.09.6.27.85.2.26.47.47.77.6v.08c-.22.09-.43.22-.59.4-.12.14-.19.32-.19.51,0,.13.02.25.08.37.06.1.13.19.22.26.09.07.18.12.28.16.1.05.21.08.32.12v.07c-.38,0-.75.12-1.05.33-.27.19-.42.51-.41.83-.01.41.21.8.57.99.54.26,1.14.38,1.73.34.4,0,.8-.04,1.19-.13.3-.08.58-.21.83-.38.41-.29.65-.76.65-1.26,0-.21-.03-.42-.12-.62-.08-.17-.19-.32-.33-.45-.13-.12-.28-.22-.44-.28M217.77,54.58c-.08,0-.17-.01-.25-.03-.07-.02-.14-.04-.21-.07-.09-.03-.16-.09-.21-.17-.05-.09-.07-.19-.06-.29v-2.66c.02-.43-.1-.86-.35-1.22-.27-.32-.67-.49-1.09-.46-.2,0-.4.03-.59.08-.16.05-.31.12-.46.21-.13.08-.24.18-.35.28-.12.12-.23.21-.31.3h-.03v-.72l-.07-.07-1.7.11v.34c.1,0,.19.02.29.04.08.02.16.05.23.09.09.06.16.14.21.24.05.1.08.21.07.33v3.15c0,.1-.02.21-.07.3-.05.08-.12.14-.21.16-.07.02-.15.04-.22.04-.08,0-.17.01-.24.02v.34h2.5v-.34c-.09,0-.17-.02-.26-.03-.08-.02-.16-.04-.23-.08-.09-.04-.16-.1-.22-.18-.05-.09-.08-.19-.07-.29v-2.94c.05-.08.09-.15.15-.22.08-.1.17-.19.27-.26.12-.09.26-.16.4-.21.16-.06.33-.09.5-.08.24,0,.47.11.62.3.18.24.28.54.26.84v2.63c0,.1-.02.21-.07.3-.05.08-.12.14-.21.16-.08.02-.16.04-.24.04l-.26.02v.34h2.49v-.35ZM210.68,47.26c-.12-.13-.3-.21-.48-.2-.18,0-.34.08-.46.21-.13.14-.2.31-.19.5,0,.18.07.35.19.48.23.26.62.28.87.05.02-.02.04-.04.06-.07.13-.14.2-.32.2-.52,0-.17-.07-.34-.19-.46M211.52,54.58c-.08,0-.16-.02-.24-.04-.08-.02-.15-.04-.22-.07-.09-.03-.17-.09-.22-.18-.05-.09-.07-.2-.07-.3v-4.17l-.07-.07-1.8.11v.34c.12,0,.23.03.34.05.1.02.2.06.28.11.09.06.16.14.21.23.05.09.08.2.07.3v3.15c0,.1-.02.21-.07.3-.05.08-.13.14-.21.16-.07.02-.14.04-.22.04l-.25.02v.34h2.46v-.34ZM203.69,57.04c.18.14.41.2.63.19.14,0,.27-.03.4-.08.16-.07.31-.17.43-.29.19-.19.36-.41.5-.64.22-.36.41-.74.58-1.13.17-.37.41-.95.73-1.73.32-.78.68-1.65,1.09-2.61.08-.18.21-.33.38-.43.12-.08.26-.14.41-.18v-.32h-1.89v.33c.16.02.31.07.45.14.16.08.23.16.23.25,0,.1-.03.2-.07.3-.05.11-.08.2-.1.27-.21.54-.39,1.01-.56,1.4s-.33.78-.48,1.15c-.15-.39-.36-.9-.62-1.55-.27-.65-.47-1.14-.6-1.48-.02-.05-.04-.1-.05-.15-.01-.03-.02-.07-.02-.1,0-.05.07-.1.22-.14.12-.04.25-.06.37-.07v-.36h-2.33v.34c.16.03.32.08.47.17.15.08.27.21.33.37.29.69.57,1.36.83,2.01.27.65.56,1.38.89,2.2-.14.36-.31.71-.52,1.03-.15.29-.36.54-.62.73-.04-.06-.08-.13-.14-.22-.05-.08-.1-.15-.17-.21-.06-.06-.13-.12-.21-.16-.09-.04-.18-.07-.28-.06-.14,0-.27.06-.35.16-.1.12-.15.27-.14.42,0,.17.09.34.23.44M201.5,53.89c-.13.17-.29.31-.47.42-.19.12-.42.18-.65.18-.21,0-.41-.06-.57-.2-.16-.17-.25-.4-.23-.63,0-.2.05-.4.15-.58.11-.17.24-.31.41-.42.19-.13.4-.23.62-.31.22-.08.48-.17.77-.25l-.03,1.79ZM203.34,54.5h-.34c-.08,0-.17-.02-.24-.05-.09-.05-.16-.12-.21-.2-.05-.1-.08-.21-.07-.32,0-.45,0-.87.02-1.25.01-.38.02-.82.01-1.32,0-.29-.04-.58-.14-.85-.08-.21-.22-.39-.4-.52-.17-.13-.37-.22-.59-.26-.25-.04-.5-.06-.76-.06-.22,0-.44.03-.65.1-.2.06-.39.14-.56.25-.17.1-.31.24-.44.39-.2.25-.22.6-.05.87.08.12.23.19.38.18.16,0,.33-.04.45-.15.1-.08.16-.2.16-.33,0-.13-.02-.25-.05-.37-.03-.1-.04-.2-.05-.3.08-.08.18-.13.29-.17.14-.05.29-.08.44-.08.19-.01.38.04.53.14.12.09.22.2.29.33.06.11.1.24.12.36.01.09.02.17.03.26v.51c-.31.15-.63.27-.96.37-.48.16-.79.27-.94.33-.14.05-.27.12-.4.19-.13.07-.24.17-.34.28-.11.12-.19.27-.25.42-.06.17-.09.35-.08.53-.01.35.12.68.37.92.25.24.59.36.94.35.32,0,.64-.06.93-.2.27-.14.52-.34.72-.57h.03c.03.22.14.41.31.55.19.14.41.2.64.19.14,0,.28-.02.42-.06.12-.03.26-.08.43-.14v-.34ZM197.87,54.59c-.08,0-.17-.02-.25-.03-.08-.02-.15-.05-.23-.08-.09-.03-.17-.1-.21-.18-.05-.09-.07-.2-.07-.3v-7.02l-.07-.08-1.92.12v.33c.13.01.27.03.4.06.12.02.24.06.34.11.09.07.16.16.21.26.05.11.08.23.08.35v5.93c0,.1-.02.21-.07.3-.05.08-.13.14-.22.16-.07.02-.15.03-.22.04-.09,0-.18.02-.25.02v.34h2.49v-.34ZM192.68,51.07c-.29.13-.6.19-.91.17h-.53v-3.25h.73c.25,0,.5.04.73.14.19.08.35.21.48.38.12.16.2.34.24.53.05.2.07.4.07.6,0,.16-.02.32-.06.48-.04.19-.12.36-.23.52-.13.19-.32.34-.52.43M194.14,48.06c-.48-.35-1.07-.53-1.66-.5h-3.35v.37c.09,0,.2.02.33.04.13.02.26.06.39.1.11.03.2.11.24.22.04.11.05.22.05.33v5.31c0,.11-.02.23-.07.33-.05.09-.13.16-.23.2-.11.04-.22.06-.33.07-.16.02-.28.03-.36.03v.37h3.15v-.37c-.14,0-.29-.02-.43-.03-.11-.01-.22-.03-.33-.07-.11-.03-.2-.11-.24-.21-.04-.1-.06-.21-.06-.32v-2.23h.82c.34,0,.67-.04,1-.14.31-.09.6-.23.86-.43.26-.19.48-.44.62-.73.15-.32.23-.67.23-1.02.02-.52-.22-1.01-.64-1.32M188.22,51.7h-3.08v.82h3.08v-.82ZM180.99,51.78c0-.45.13-.89.39-1.26.21-.29.54-.45.9-.45.19,0,.38.04.53.15.14.1.25.23.33.39.08.18.13.36.16.55.03.21.05.41.05.62h-2.36ZM184.12,53.5c-.15.31-.37.57-.64.78-.24.15-.51.23-.79.22-.27,0-.54-.05-.77-.18-.21-.11-.39-.27-.53-.47-.14-.22-.24-.47-.3-.72-.07-.3-.1-.61-.1-.92h3.38v-.34c0-.29-.04-.58-.12-.85-.07-.25-.19-.48-.35-.69-.17-.21-.4-.37-.65-.48-.3-.12-.63-.18-.96-.18-.34,0-.68.07-.98.23-.28.14-.53.35-.73.59-.21.26-.36.55-.46.86-.1.32-.16.65-.16.98,0,.36.05.71.15,1.05.09.32.24.61.45.87.21.25.47.46.76.59.34.15.71.23,1.08.22.44,0,.87-.12,1.24-.36.36-.25.66-.58.86-.98l-.36-.22ZM179.32,54.59c-.08,0-.17-.02-.25-.03-.08-.02-.15-.05-.23-.08-.09-.03-.17-.1-.22-.18-.05-.09-.07-.2-.07-.3v-7.02l-.07-.08-1.92.11v.33c.13.01.27.03.4.06.12.02.24.06.34.11.09.07.16.16.21.26.05.11.08.23.08.35v5.93c0,.1-.02.21-.07.3-.05.08-.13.14-.22.16-.07.02-.15.03-.22.04-.09,0-.18.02-.25.02v.34h2.48v-.34ZM174.76,54.06c-.2.38-.59.63-1.02.63-.23,0-.47-.06-.66-.19-.19-.14-.34-.31-.44-.52-.12-.24-.21-.49-.26-.76-.06-.3-.08-.61-.08-.92,0-.26.02-.52.07-.78.04-.25.12-.49.23-.72.11-.22.26-.4.46-.54.2-.14.44-.21.68-.2.23,0,.47.06.66.2.18.14.33.31.43.52.11.23.19.48.23.73.05.27.08.55.08.82.03.6-.1,1.2-.38,1.73M175.51,50.4c-1-.98-2.61-.96-3.59.04,0,0,0,0,0,0-.48.54-.73,1.24-.7,1.96,0,.38.06.76.2,1.12.12.32.3.6.54.85.22.23.49.41.78.54.29.12.61.19.93.19.36,0,.72-.06,1.06-.2.32-.14.6-.35.83-.62.22-.26.38-.56.49-.88.11-.34.17-.7.17-1.06.03-.71-.22-1.4-.7-1.93M167.88,50.7c-.32.31-.75.47-1.19.46h-.67v-3.16h.88c.74-.07,1.39.47,1.46,1.2,0,.08,0,.16,0,.25.02.46-.15.92-.48,1.25M171.08,54.56c-.11,0-.22-.02-.34-.04-.12-.02-.23-.05-.34-.1-.13-.07-.25-.15-.36-.24-.16-.13-.29-.29-.41-.46-.35-.47-.64-.87-.88-1.2s-.54-.73-.9-1.21c.25-.07.49-.16.72-.28.2-.1.39-.23.56-.39.17-.16.3-.35.38-.57.09-.24.13-.5.13-.75,0-.28-.06-.56-.19-.81-.12-.22-.3-.4-.51-.54-.23-.14-.48-.25-.74-.31-.29-.07-.58-.1-.87-.1h-3.38v.37c.12.01.24.03.35.05.11.02.23.05.34.08.11.03.2.11.24.21.04.1.05.21.05.32v5.32c0,.11-.02.23-.07.33-.05.09-.13.16-.23.2-.11.04-.22.06-.33.07-.16.02-.28.03-.36.03v.37h3.1v-.37c-.11,0-.24-.01-.39-.03-.11-.01-.22-.03-.33-.07-.11-.03-.19-.11-.24-.21-.04-.1-.06-.21-.06-.32v-2.34h.75c.41.53.79,1.05,1.15,1.55.35.5.75,1.1,1.18,1.79h1.98v-.37ZM158.57,54.53c-.17.1-.36.15-.56.15-.16,0-.31-.02-.46-.08-.12-.05-.24-.13-.35-.21-.09-.08-.17-.16-.24-.26-.06-.09-.12-.19-.15-.29v-3.03c.13-.16.29-.29.46-.4.2-.12.42-.18.65-.17.24,0,.48.06.68.19.19.13.34.29.46.49.13.22.21.45.26.7.05.26.08.52.08.78,0,.32-.03.64-.1.95-.06.26-.16.52-.3.75-.11.18-.27.33-.45.43M159.18,49.88c-.27-.14-.57-.2-.87-.2-.28,0-.55.07-.79.21-.25.13-.48.31-.67.52h-.04v-.59l-.07-.06-1.74.11v.34c.11,0,.22.02.32.04.09.02.18.05.26.1.08.06.15.14.2.23.05.09.08.2.08.3v5.44c0,.1-.02.21-.06.3-.04.09-.12.15-.22.18-.09.03-.18.04-.27.05-.1,0-.2.02-.31.03v.34h2.85v-.34c-.13,0-.25-.02-.38-.05-.12-.02-.24-.05-.35-.09-.09-.03-.17-.1-.22-.18-.05-.1-.08-.2-.07-.31v-1.54h.04c.15.11.31.19.48.24.24.08.5.11.76.1.31,0,.62-.06.9-.19.29-.13.55-.32.77-.55.23-.25.41-.54.53-.85.14-.35.21-.73.2-1.11,0-.37-.05-.75-.17-1.1-.1-.31-.27-.59-.47-.84-.19-.23-.42-.41-.68-.55M153.02,54.06c-.2.38-.59.63-1.02.63-.23,0-.47-.06-.66-.19-.19-.14-.34-.32-.44-.52-.12-.24-.21-.49-.26-.76-.06-.3-.08-.61-.08-.92,0-.26.02-.52.07-.78.04-.25.12-.49.23-.72.11-.22.26-.4.46-.54.2-.14.44-.21.68-.2.23,0,.47.06.66.2.18.13.33.31.43.52.11.23.19.48.23.73.05.27.08.55.08.82.03.6-.1,1.2-.38,1.73M153.77,50.39c-1-.98-2.61-.96-3.59.04,0,0,0,0,0,0-.48.54-.73,1.24-.7,1.96,0,.38.06.76.2,1.12.12.32.3.6.54.85.22.23.49.41.78.54.29.12.61.19.93.19.36,0,.72-.06,1.06-.2.32-.14.6-.35.83-.62.22-.26.39-.56.49-.88.11-.34.17-.7.17-1.06.03-.71-.22-1.4-.7-1.93M148.99,54.33c-.12.03-.23.05-.35.06-.17.02-.29.02-.38.02-.15,0-.3-.02-.45-.08-.1-.05-.19-.13-.25-.23-.06-.12-.1-.24-.11-.38-.01-.14-.02-.32-.02-.54v-2.86h1.45v-.5h-1.46v-1.59h-.94v1.59h-.94v.5h.92v3.47c-.02.33.07.65.26.92.23.24.57.36.9.33.25,0,.49-.03.73-.1.2-.06.41-.14.64-.24v-.37ZM141.75,51.78c0-.45.13-.89.39-1.26.21-.29.54-.45.9-.45.19,0,.38.04.53.15.14.1.25.23.33.39.08.18.13.36.16.55.03.21.05.41.05.62h-2.35ZM144.89,53.51c-.15.31-.37.57-.64.78-.24.15-.51.23-.79.22-.27,0-.54-.05-.77-.18-.21-.11-.39-.27-.53-.47-.14-.22-.24-.47-.3-.72-.07-.3-.1-.61-.1-.92h3.37v-.34c0-.29-.03-.58-.1-.85-.07-.25-.19-.48-.35-.69-.17-.21-.4-.37-.65-.48-.3-.12-.63-.18-.96-.18-.34,0-.68.07-.98.23-.28.14-.53.35-.73.59-.21.26-.36.55-.46.86-.1.32-.16.65-.16.98,0,.36.05.71.15,1.05.09.32.24.61.45.87.21.25.47.45.76.59.34.15.71.23,1.08.22.44,0,.87-.12,1.24-.36.36-.25.66-.58.86-.98l-.38-.22ZM140.09,54.59c-.08,0-.17-.02-.25-.03-.08-.02-.15-.05-.23-.08-.09-.03-.17-.1-.22-.18-.05-.09-.07-.2-.07-.3v-7.02l-.07-.08-1.92.11v.33c.13.01.27.03.4.06.12.02.23.06.34.11.09.07.16.16.21.26.05.11.08.23.08.35v5.93c0,.1-.02.21-.07.3-.05.08-.13.14-.22.16-.07.02-.15.03-.22.04-.09,0-.18.02-.25.02v.34h2.49v-.34ZM135.48,54.08c-.2.38-.59.61-1.02.61-.16,0-.33-.03-.48-.09-.13-.06-.25-.14-.35-.24-.1-.09-.18-.2-.24-.32-.05-.09-.09-.19-.12-.29v-2.98c.14-.16.3-.29.49-.39.2-.1.41-.15.63-.14.24,0,.48.06.68.19.19.13.35.29.46.49.12.22.21.45.26.7.05.26.08.52.08.78.03.58-.1,1.17-.39,1.68M136.32,50.42c-.38-.48-.96-.75-1.57-.75-.26,0-.51.06-.75.17-.26.12-.5.3-.7.51h-.04v-3.38l-.07-.08-1.87.11v.33c.09,0,.21.02.37.04.12,0,.23.04.33.1.09.06.16.15.2.25.05.11.08.23.08.35v5.07c0,.34,0,.68-.01,1.04s-.02.67-.04.92l.32.07.38-.6c.24.14.5.26.76.35.27.08.54.13.82.13.65,0,1.26-.29,1.68-.78.48-.53.74-1.22.72-1.93.03-.7-.19-1.4-.63-1.95M129.44,53.88c-.13.17-.29.31-.47.42-.19.12-.42.18-.64.18-.21,0-.41-.06-.57-.2-.16-.17-.24-.4-.22-.63,0-.2.05-.4.15-.58.11-.17.24-.31.41-.42.19-.13.4-.23.62-.31.22-.08.48-.17.77-.25l-.03,1.79ZM131.27,54.5h-.34c-.09,0-.17-.02-.25-.05-.09-.05-.16-.12-.21-.2-.05-.1-.08-.21-.07-.32,0-.45,0-.87.01-1.25.01-.38.02-.82.02-1.32,0-.29-.04-.58-.14-.85-.08-.21-.22-.39-.4-.52-.17-.13-.37-.22-.59-.26-.25-.04-.5-.06-.76-.06-.22,0-.44.03-.65.1-.2.06-.39.14-.56.25-.17.1-.31.24-.44.39-.2.25-.22.6-.05.87.08.12.23.19.38.18.16,0,.33-.04.45-.15.1-.08.16-.2.16-.33,0-.13-.02-.25-.05-.37-.03-.1-.04-.2-.05-.3.08-.08.18-.13.29-.17.14-.05.29-.08.44-.08.19-.01.38.04.53.14.12.09.22.2.29.33.06.11.1.24.12.36.01.09.02.17.03.26v.51c-.31.15-.63.27-.96.37-.47.16-.79.27-.94.33-.14.05-.27.12-.4.19-.13.07-.24.16-.34.28-.11.12-.19.27-.25.42-.06.17-.09.35-.08.53-.01.35.12.68.37.92.25.24.59.37.94.35.32,0,.64-.06.93-.2.27-.14.52-.34.72-.57h.03c.03.22.14.41.31.55.19.14.41.2.64.19.14,0,.28-.02.42-.06.12-.03.26-.08.43-.14v-.34ZM126,47.56h-6.39v2h.36c.04-.15.1-.29.17-.43.08-.17.17-.34.27-.5.1-.15.21-.29.34-.42.09-.11.22-.18.35-.2.14-.02.3-.03.46-.03s.29,0,.4,0h.3v5.93c0,.12-.02.24-.08.34-.06.09-.15.16-.25.2-.13.04-.27.07-.41.08-.2.02-.35.03-.44.04v.37h3.46v-.37c-.16-.01-.31-.03-.46-.07-.13-.02-.26-.06-.39-.1-.11-.04-.2-.12-.25-.22-.05-.1-.07-.21-.07-.31v-5.88h.3c.14,0,.29,0,.45.01s.3.02.4.03c.14.03.26.1.36.2.13.13.24.27.34.42.1.16.19.32.27.49.07.14.13.29.17.44h.36v-2ZM116.72,54.59c-.08,0-.17-.01-.25-.03-.07-.02-.15-.04-.21-.07-.09-.03-.16-.09-.21-.17-.04-.09-.07-.19-.06-.29v-2.66c.02-.44-.1-.87-.36-1.22-.27-.32-.67-.49-1.09-.46-.2,0-.4.03-.59.08-.16.05-.31.12-.46.21-.13.08-.24.18-.35.28-.12.12-.23.21-.31.3h-.03v-.72l-.07-.07-1.7.11v.34c.1,0,.19.02.29.04.08.02.16.05.23.09.09.06.16.14.21.24.05.1.08.21.07.33v3.15c0,.1-.02.21-.07.3-.05.08-.12.14-.21.16-.07.02-.15.04-.22.04-.08,0-.17.01-.25.02v.34h2.5v-.34c-.09,0-.17-.02-.26-.03-.08-.02-.16-.04-.24-.08-.09-.04-.16-.1-.22-.18-.05-.09-.08-.19-.07-.29v-2.94c.04-.08.09-.15.15-.22.08-.1.17-.19.27-.26.12-.09.26-.16.4-.21.16-.06.33-.09.5-.08.24,0,.47.11.63.3.18.24.28.54.26.84v2.63c0,.1-.02.21-.07.3-.05.08-.13.14-.21.16-.08.02-.15.04-.23.04l-.26.02v.34h2.49v-.34ZM109.63,47.27c-.12-.13-.3-.21-.48-.2-.18,0-.34.08-.46.21-.13.14-.2.31-.19.5,0,.18.07.35.19.48.11.13.28.21.46.21.18,0,.36-.08.48-.22.13-.14.2-.32.2-.52,0-.17-.07-.34-.19-.46M110.47,54.59c-.08,0-.16-.02-.24-.04-.08-.02-.15-.04-.22-.07-.09-.03-.17-.09-.22-.18-.05-.09-.07-.2-.07-.3v-4.17l-.07-.07-1.8.11v.34c.11,0,.23.03.34.05.1.02.2.06.29.11.09.06.16.14.21.23.05.09.08.2.07.3v3.15c0,.1-.02.21-.07.3-.05.08-.12.14-.21.16-.07.02-.15.04-.22.04-.08,0-.17.01-.25.02v.34h2.46v-.34ZM101.36,51.78c0-.45.13-.89.39-1.26.21-.29.54-.46.9-.45.19,0,.38.04.53.15.14.1.25.23.33.39.08.18.13.36.16.55.03.21.05.41.05.62h-2.35ZM104.5,53.51c-.15.31-.37.57-.64.78-.24.15-.51.23-.79.22-.27,0-.54-.05-.78-.18-.21-.11-.39-.27-.53-.47-.14-.22-.24-.47-.3-.72-.07-.3-.1-.61-.1-.92h3.37v-.34c0-.29-.04-.58-.12-.85-.07-.25-.19-.48-.35-.69-.17-.21-.4-.37-.65-.48-.3-.12-.63-.18-.96-.18-.34,0-.68.07-.98.23-.28.14-.53.35-.73.59-.2.26-.36.55-.46.86-.1.32-.16.64-.16.98,0,.36.05.71.15,1.05.09.32.24.61.45.87.21.25.47.45.76.59.34.15.71.23,1.08.22.44,0,.87-.12,1.24-.36.36-.25.66-.58.86-.98l-.36-.22ZM97.51,54.34c-.42.24-.93.24-1.35,0-.19-.12-.35-.28-.46-.47-.13-.2-.22-.43-.28-.66-.06-.26-.09-.53-.08-.79,0-.33.03-.67.11-.99.06-.26.16-.51.3-.74.12-.19.28-.34.46-.46.17-.11.37-.16.57-.16.16,0,.32.03.47.08.13.05.25.13.35.22.09.08.17.18.23.28.06.09.1.19.13.29v2.99c-.13.15-.29.29-.46.4M99.84,54.49c-.1,0-.22-.01-.34-.02-.1,0-.2-.03-.29-.08-.08-.05-.15-.13-.2-.21-.05-.1-.07-.2-.07-.31v-6.89l-.08-.08-2.09.11v.32c.18.01.35.03.53.07.14.02.27.07.39.14.09.07.16.16.2.27.05.13.08.26.07.4v1.78c-.19-.1-.38-.18-.59-.23-.23-.06-.46-.09-.7-.09-.32,0-.64.07-.93.21-.29.13-.55.32-.77.55-.23.26-.41.55-.53.87-.13.34-.19.69-.19,1.05,0,.38.06.75.18,1.11.11.31.27.61.48.86.19.23.43.42.7.55.26.13.55.19.84.19.28,0,.56-.07.81-.19.25-.12.48-.29.66-.49h.04v.49l.08.07,1.78-.12v-.34ZM93.63,54.49c-.09,0-.19-.01-.28-.02-.08,0-.16-.03-.22-.08-.08-.05-.15-.13-.2-.21-.05-.09-.08-.2-.07-.3v-4.06l-.08-.07-1.85.12v.34c.15,0,.29.01.41.02.1,0,.19.03.28.08.08.06.15.14.2.23.05.09.08.2.07.3v2.9c-.05.08-.1.16-.16.22-.07.08-.16.16-.25.23-.11.09-.24.16-.37.21-.16.06-.33.09-.51.09-.23,0-.45-.1-.59-.28-.18-.24-.27-.54-.25-.83v-3.55l-.08-.07-1.7.12v.34c.1,0,.2.02.3.04.08.01.16.05.24.09.18.12.29.32.27.53v2.45c-.03.46.09.91.35,1.29.25.3.64.47,1.03.44.21,0,.42-.02.61-.07.16-.05.31-.12.45-.21.13-.07.25-.16.36-.27.1-.1.2-.19.28-.28h.03v.65l.08.07,1.66-.12v-.34ZM87.66,54.33c-.12.03-.23.05-.35.06-.17.02-.29.02-.38.02-.15,0-.3-.02-.44-.08-.11-.05-.19-.13-.25-.23-.06-.12-.1-.24-.11-.38-.02-.18-.03-.36-.02-.54v-2.86h1.45v-.5h-1.46v-1.59h-.94v1.59h-.94v.5h.92v3.47c-.02.33.07.65.26.92.23.24.57.36.9.33.25,0,.5-.03.73-.1.2-.06.41-.14.64-.24v-.38ZM83.05,47.27c-.12-.13-.3-.21-.48-.2-.18,0-.34.08-.46.21-.13.14-.2.31-.19.5,0,.18.07.35.19.48.11.13.28.21.46.21.18,0,.36-.08.48-.22.13-.14.2-.33.19-.52,0-.17-.07-.34-.19-.46M83.89,54.59c-.08,0-.16-.02-.24-.04-.08-.02-.15-.04-.22-.07-.09-.03-.17-.09-.22-.18-.05-.09-.07-.2-.07-.3v-4.17l-.07-.07-1.8.11v.34c.12,0,.23.03.34.05.1.02.2.06.28.11.09.06.16.14.21.23.05.09.08.2.07.3v3.15c0,.1-.02.21-.07.3-.05.08-.13.14-.21.16-.07.02-.14.04-.22.04-.08,0-.17.01-.25.02v.34h2.46v-.34ZM80.78,54.59c-.08,0-.17-.02-.25-.03-.08-.02-.15-.05-.22-.08-.09-.03-.17-.1-.22-.18-.05-.09-.07-.2-.07-.3v-7.02l-.07-.08-1.92.12v.33c.13.01.27.03.4.06.12.02.24.06.34.11.09.07.16.16.21.26.05.11.08.23.08.35v5.93c0,.1-.02.21-.07.3-.05.08-.13.14-.22.16-.07.02-.15.03-.22.04-.09,0-.17.02-.25.02v.34h2.49v-.34ZM76.92,47.27c-.13-.13-.3-.21-.48-.2-.18,0-.34.08-.46.21-.13.14-.2.31-.19.5,0,.18.07.35.19.48.11.13.28.21.46.21.18,0,.36-.08.48-.22.13-.14.2-.33.19-.52,0-.17-.07-.34-.19-.46M77.76,54.59c-.08,0-.16-.02-.24-.04-.08-.02-.15-.04-.22-.07-.09-.03-.17-.09-.22-.18-.05-.09-.07-.2-.07-.3v-4.17l-.07-.07-1.8.11v.34c.11,0,.23.03.34.05.1.02.2.06.29.11.09.06.16.14.21.23.05.09.08.2.07.3v3.15c0,.1-.02.21-.07.3-.05.08-.12.14-.21.16-.07.02-.15.04-.22.04-.08,0-.17.01-.25.02v.34h2.46v-.34ZM74.68,54.59c-.09,0-.17-.02-.26-.03-.08-.02-.16-.04-.24-.07-.09-.03-.16-.1-.21-.18-.04-.09-.07-.2-.06-.3v-2.6c.04-.47-.1-.93-.38-1.31-.26-.29-.63-.44-1.02-.42-.2,0-.4.03-.59.08-.16.05-.32.12-.46.22-.13.09-.26.18-.37.29-.09.09-.2.2-.33.32-.11-.26-.29-.48-.51-.65-.25-.18-.55-.27-.85-.27-.2,0-.4.03-.59.08-.16.05-.31.12-.45.21-.12.09-.24.18-.35.28-.12.12-.23.22-.32.31h-.04v-.73l-.07-.07-1.71.11v.34c.1,0,.2.02.3.05.09.02.17.06.24.1.09.06.16.14.21.23.05.09.08.2.07.3v3.18c0,.1-.02.21-.07.3-.05.08-.12.14-.21.16-.07.02-.14.04-.22.04l-.25.02v.34h2.47v-.34c-.09,0-.17-.02-.25-.03-.08-.02-.15-.04-.22-.08-.09-.04-.17-.1-.22-.18-.05-.09-.08-.2-.07-.3v-2.93s.09-.12.16-.21c.07-.1.16-.19.25-.26.12-.09.26-.17.41-.22.15-.05.31-.08.48-.08.24,0,.46.11.61.29.18.24.27.53.25.83v2.64c0,.1-.02.21-.07.3-.05.08-.12.14-.21.16-.07.02-.13.03-.2.04-.07,0-.15.01-.23.02v.34h2.43v-.34c-.08,0-.17-.01-.25-.03-.07-.02-.14-.04-.21-.07-.09-.03-.17-.1-.21-.18-.05-.09-.07-.2-.06-.3v-2.95c.05-.08.1-.15.15-.22.07-.09.16-.18.25-.25.12-.09.26-.17.41-.22.15-.05.31-.08.47-.08.24,0,.46.11.61.29.18.24.26.54.25.83v2.64c0,.1-.02.21-.07.3-.05.08-.12.14-.21.16-.07.02-.14.04-.21.04-.08,0-.16.01-.24.02v.34h2.48v-.34ZM64.5,47.27c-.12-.13-.3-.21-.48-.2-.18,0-.34.08-.46.21-.13.14-.2.31-.19.5,0,.18.07.35.19.48.23.26.62.28.87.05.02-.02.04-.04.06-.07.13-.14.2-.32.2-.52,0-.17-.07-.34-.19-.46M65.34,54.59c-.08,0-.16-.02-.24-.04-.07-.02-.15-.04-.22-.07-.09-.03-.17-.09-.22-.18-.05-.09-.07-.2-.07-.3v-4.17l-.07-.07-1.8.11v.34c.12,0,.23.03.34.05.1.02.2.06.28.11.09.06.16.14.21.23.05.09.08.2.07.3v3.15c0,.1-.02.21-.07.3-.05.08-.12.14-.21.16-.07.02-.14.04-.22.04l-.25.02v.34h2.46v-.34ZM61.16,52.11c-.21-.1-.42-.19-.64-.25-.23-.08-.42-.14-.58-.2-.14-.05-.27-.12-.39-.19-.1-.07-.18-.16-.24-.26-.06-.12-.08-.26-.08-.39,0-.2.09-.39.24-.52.19-.15.43-.23.67-.21.33,0,.64.12.87.35.25.24.41.56.47.9h.36l-.08-1.64h-.37l-.12.27c-.16-.08-.33-.15-.51-.19-.2-.05-.41-.08-.61-.08-.46-.02-.9.13-1.24.44-.3.27-.47.66-.47,1.06,0,.22.04.43.15.62.09.17.22.32.37.45.16.12.33.22.51.3.18.08.36.14.54.2.2.06.39.13.55.19.15.05.29.13.42.21.1.07.19.17.25.28.16.35.09.76-.18,1.02-.22.16-.49.25-.77.23-.22,0-.44-.05-.64-.16-.18-.1-.34-.23-.48-.39-.13-.15-.24-.31-.33-.49-.08-.15-.14-.31-.17-.47h-.36l.05,1.78h.39l.1-.34c.16.12.34.22.53.3.73.29,1.56.18,2.19-.29.34-.29.54-.71.53-1.16,0-.21-.03-.41-.11-.6-.08-.16-.19-.31-.33-.43-.15-.13-.32-.24-.5-.32M56.82,47.27c-.12-.13-.3-.21-.48-.2-.18,0-.34.08-.46.21-.13.14-.2.31-.19.5,0,.18.07.35.19.48.11.13.28.21.46.21.18,0,.36-.08.48-.22.13-.14.2-.33.2-.52,0-.17-.07-.34-.19-.46M57.67,54.59c-.08,0-.16-.02-.24-.04-.08-.02-.15-.04-.22-.07-.09-.03-.17-.09-.22-.18-.05-.09-.07-.2-.07-.3v-4.17l-.07-.07-1.8.11v.34c.12,0,.23.03.34.05.1.02.2.06.28.11.09.06.16.14.21.23.05.09.08.2.07.3v3.15c0,.1-.02.21-.07.3-.05.08-.13.14-.22.16-.07.02-.14.04-.22.04l-.25.02v.34h2.46v-.34ZM54.56,49.9c-.14-.14-.33-.22-.53-.21-.25.01-.5.09-.72.22-.28.16-.52.38-.71.64h-.03v-.72l-.07-.07-1.69.11v.34c.1,0,.19.02.29.04.08.02.16.05.23.09.09.06.16.15.21.25.05.1.07.21.08.32v3.15c0,.1-.02.21-.07.3-.05.08-.13.14-.22.16-.07.02-.14.04-.22.04l-.25.02v.34h2.69v-.34c-.1,0-.22-.02-.35-.03-.11-.01-.23-.04-.33-.08-.09-.03-.17-.09-.22-.17-.05-.09-.08-.2-.07-.3v-2.97c.14-.23.33-.42.55-.56.17-.12.36-.19.57-.2l-.03.19c-.01.07-.02.14-.02.21,0,.13.06.25.15.33.12.11.28.16.44.15.16.01.31-.07.4-.2.09-.14.13-.3.13-.47.01-.21-.06-.41-.2-.57M46.77,51.78c0-.45.13-.89.39-1.26.21-.29.54-.46.9-.45.19,0,.38.04.53.15.14.1.25.23.33.39.08.18.13.36.16.55.03.21.05.41.05.62h-2.35ZM49.91,53.5c-.15.31-.37.57-.64.78-.24.15-.51.23-.79.22-.27,0-.54-.05-.78-.18-.21-.11-.39-.27-.53-.47-.14-.22-.24-.47-.3-.72-.07-.3-.1-.61-.1-.92h3.37v-.34c0-.29-.04-.58-.12-.85-.07-.25-.19-.48-.35-.69-.17-.21-.4-.37-.65-.48-.3-.12-.63-.18-.96-.18-.34,0-.68.07-.98.23-.28.14-.53.35-.73.59-.2.26-.36.55-.46.86-.1.32-.16.64-.16.98,0,.36.05.71.15,1.05.09.32.24.61.45.87.21.25.47.45.76.59.34.15.71.23,1.08.22.44,0,.87-.12,1.24-.36.36-.25.66-.58.86-.98l-.36-.22ZM45.59,47.57h-2.73v.37c.12.01.24.02.36.04.12.02.23.04.35.08.1.03.2.08.28.14.07.05.11.12.11.2,0,.1-.01.2-.03.3-.05.22-.12.44-.2.65-.12.33-.35.93-.69,1.8-.34.87-.64,1.63-.91,2.27-.53-1.42-.93-2.51-1.22-3.27s-.49-1.32-.62-1.66c-.01-.03-.02-.07-.04-.12-.01-.04-.02-.09-.02-.14,0-.1.09-.16.27-.2.22-.04.43-.07.65-.08v-.37h-3.04v.37c.11,0,.21.03.32.06.11.03.21.07.31.13.1.06.19.14.27.23.07.08.13.18.17.28.17.44.48,1.27.94,2.52s.94,2.53,1.44,3.87h.43c.49-1.26.96-2.47,1.43-3.64s.81-2.02,1.04-2.57c.06-.14.13-.27.21-.4.07-.11.17-.21.28-.28.1-.06.2-.1.31-.13.11-.03.22-.05.33-.06v-.38ZM33.32,54.34c-.42.24-.93.24-1.35,0-.19-.12-.35-.28-.46-.47-.13-.2-.23-.42-.28-.66-.06-.26-.09-.53-.08-.79,0-.33.03-.67.11-.99.06-.26.16-.51.3-.74.12-.19.28-.34.46-.46.17-.11.37-.16.57-.16.16,0,.32.03.47.08.13.05.25.13.35.22.09.08.17.18.23.28.06.09.1.19.13.29v2.99c-.13.15-.29.29-.46.4M35.64,54.49c-.1,0-.22-.01-.34-.02-.1,0-.2-.03-.28-.08-.08-.05-.15-.13-.2-.21-.05-.1-.07-.2-.07-.31v-6.89l-.08-.08-2.09.11v.32c.18.01.35.03.53.07.14.02.27.07.39.14.09.07.16.16.2.27.05.13.08.26.07.4v1.78c-.19-.1-.38-.18-.59-.23-.23-.06-.46-.09-.7-.09-.32,0-.64.07-.93.21-.29.13-.55.32-.77.55-.23.26-.41.55-.53.87-.13.34-.19.69-.19,1.05,0,.38.06.75.18,1.11.11.31.27.61.48.86.19.23.43.42.7.55.26.13.55.19.84.19.28,0,.56-.07.81-.19.25-.12.48-.29.66-.49h.04v.49l.08.07,1.78-.12v-.34ZM29.42,49.9c-.14-.14-.33-.22-.53-.21-.25.01-.5.09-.72.22-.28.16-.52.38-.71.64h-.03v-.72l-.07-.07-1.7.11v.34c.1,0,.19.02.29.04.08.02.16.05.23.09.09.06.16.15.21.25.05.1.07.21.08.32v3.15c0,.1-.02.21-.07.3-.05.08-.13.14-.22.16-.07.02-.14.04-.22.04-.08,0-.17.01-.25.02v.34h2.68v-.34c-.1,0-.22-.02-.35-.03-.11-.01-.23-.04-.33-.08-.09-.03-.17-.09-.22-.17-.05-.09-.07-.2-.07-.3v-2.97c.14-.23.33-.42.55-.56.17-.12.36-.19.57-.2l-.03.19c-.01.07-.02.14-.02.21,0,.13.06.25.15.33.12.11.28.16.44.15.16.01.31-.07.4-.2.09-.14.13-.3.13-.47.01-.21-.06-.41-.2-.57M23.39,53.89c-.13.17-.29.31-.47.42-.19.12-.42.18-.65.18-.21,0-.41-.06-.57-.2-.16-.17-.24-.4-.23-.63,0-.2.05-.4.15-.58.11-.17.24-.31.41-.42.19-.13.4-.23.62-.31.22-.08.48-.17.77-.25l-.03,1.79ZM25.22,54.5h-.34c-.08,0-.17-.02-.25-.05-.09-.05-.16-.12-.22-.2-.05-.1-.08-.21-.07-.32,0-.45,0-.87.02-1.25.01-.38.02-.82.01-1.32,0-.29-.04-.58-.14-.85-.08-.21-.22-.39-.4-.52-.17-.13-.37-.22-.59-.26-.25-.04-.5-.06-.76-.06-.22,0-.44.03-.65.1-.2.06-.39.14-.56.25-.17.1-.31.24-.44.39-.2.25-.22.6-.05.87.08.12.23.19.38.18.16,0,.33-.04.45-.15.1-.08.16-.2.16-.33,0-.13-.02-.25-.05-.37-.03-.1-.04-.2-.05-.3.08-.08.18-.13.29-.17.14-.05.29-.08.44-.08.19-.01.38.04.53.14.12.09.22.2.29.33.06.11.1.24.12.36.01.09.02.17.03.26v.51c-.31.15-.63.27-.96.37-.47.16-.79.27-.94.33-.14.05-.27.12-.4.19-.13.07-.24.16-.34.28-.11.12-.19.27-.25.42-.06.17-.09.35-.08.53-.01.35.12.68.37.92.25.24.59.37.94.35.32,0,.64-.06.93-.2.27-.14.52-.34.72-.57h.03c.03.22.14.41.31.55.19.13.41.2.64.19.14,0,.28-.02.42-.06.12-.03.26-.08.43-.14v-.34ZM20.18,49.82h-1.94v.33c.06,0,.12,0,.18.02.08.01.15.03.23.06.07.03.14.07.2.12.05.04.08.1.08.17,0,.07-.01.15-.03.22-.02.07-.05.16-.07.25-.11.38-.24.79-.39,1.22-.15.43-.29.88-.44,1.34l-1.33-3.63h-.5l-1.3,3.68c-.22-.72-.4-1.3-.54-1.74-.14-.45-.26-.85-.37-1.21-.02-.05-.03-.1-.04-.15,0-.03-.02-.06-.02-.09,0-.08.07-.14.2-.17.12-.03.24-.05.37-.06v-.36h-2.28v.34c.16.02.31.08.45.17.15.08.26.22.31.38.19.56.41,1.22.65,1.98.25.75.5,1.52.76,2.28h.43l1.38-3.77,1.38,3.77h.44c.05-.19.11-.39.17-.6s.13-.4.19-.58c.19-.57.36-1.08.51-1.53s.32-.93.49-1.44c.06-.2.19-.37.36-.48.14-.1.3-.16.47-.18v-.33ZM10.41,54.06c-.2.38-.59.63-1.02.63-.23,0-.47-.06-.66-.19-.19-.14-.34-.31-.44-.52-.12-.24-.21-.49-.26-.76-.06-.3-.08-.61-.08-.92,0-.26.02-.53.07-.79.04-.25.12-.49.23-.72.11-.22.26-.4.46-.54.2-.14.44-.21.68-.2.23,0,.47.06.66.2.18.14.33.31.43.52.11.23.19.48.23.73.05.27.08.55.08.82.03.6-.1,1.2-.38,1.73M11.16,50.39c-.46-.48-1.1-.74-1.77-.72-.69-.03-1.36.25-1.82.76-.48.54-.73,1.24-.7,1.96,0,.39.06.77.2,1.13.12.32.3.6.54.85.22.23.49.41.78.54.29.12.61.19.93.19.36,0,.72-.06,1.06-.2.32-.14.6-.35.83-.62.22-.26.38-.56.49-.88.11-.34.17-.7.17-1.06.03-.71-.22-1.4-.7-1.93M6.44,47.57H.05v2h.36c.04-.15.1-.29.17-.43.08-.17.17-.34.27-.5.1-.15.21-.29.34-.42.09-.1.22-.17.35-.2.14-.02.3-.03.46-.03s.29,0,.4,0h.3v5.94c0,.12-.02.24-.08.34-.06.09-.15.16-.25.2-.13.04-.27.07-.41.08-.2.02-.35.03-.44.04v.37h3.46v-.37c-.16-.01-.31-.03-.46-.07-.13-.02-.26-.06-.39-.1-.11-.04-.2-.12-.25-.22-.05-.1-.07-.21-.07-.31v-5.89h.3c.14,0,.29,0,.45.01s.3.02.4.03c.14.03.26.1.36.2.13.13.24.27.34.42.1.16.19.32.27.49.07.14.13.29.17.44h.36v-2Z"/>
    <path id="Path_222" data-name="Path 222" d="M219.61,22.7c.01.06.02.12.02.18l.05.88c0,.18-.02.37-.05.55-.03.18-.05.37-.07.55s-.04.37-.07.55c-.02.12-.04.25-.05.37v-.05c-.03.2-.05.4-.05.6-.12,1.23-.5,1.84-1.15,1.84-.65,0-1.28-.23-1.79-.64-.31-.25-.48-.62-.46-1.01.08-.89.45-1.73,1.05-2.39.37-.37.77-.7,1.19-1.01.12-.13.26-.24.41-.32.24-.28.54-.5.87-.64.04.1.05.21.05.32,0,.08,0,.15.02.23M218.85,17.73l-.05-.05c.26.42.47.87.64,1.33-.05.4-.23.77-.5,1.06-.44.39-.96.69-1.51.88-.12.03-.6.23-1.42.6l-.28.09c-1.19.56-2.24,1.38-3.07,2.39-.35.49-.55,1.06-.6,1.66,0,.09,0,.21-.02.37s-.02.25-.02.28v.55c-.06.13-.09.27-.09.41,0,.05.01.09.02.14.01.06.03.15.05.27.01.12.04.25.07.37v.09l.05.09c0,.11.01.22.05.32.04.45.24.87.55,1.2.93,1.01,2.24,1.6,3.62,1.61,1.21-.05,2.38-.38,3.44-.97h-.05c.15-.06.21-.11.18-.14l.14.09c.07.04.13.08.18.14,0,.03.03.06.09.09l.09.05.6.46c.33.17.69.27,1.05.27.96-.08,1.82-.63,2.29-1.47.39-.37.67-.85.78-1.38,0-.21-.08-.41-.23-.55l-.87-.37s-.12-.09-.28-.27c-.32-.32-.56-.72-.69-1.15-.03-.34-.05-.74-.05-1.2l.05-5.66s0-.11.02-.23c.01-.09.02-.18.02-.27v-.28c.02-.71-.17-1.42-.55-2.02-.52-.94-1.32-1.7-2.29-2.16-.79-.23-1.61-.33-2.43-.27-.47,0-.92.14-1.33.37l-.5.27.05-.05c-.55.17-1.08.42-1.56.74l.05-.05c-.65.51-1.02,1.29-1.01,2.12,0,.95.4,1.43,1.19,1.43.41-.06.79-.23,1.1-.51.31-.22.6-.47.87-.74.09-.05.16-.11.23-.18l.09-.18.14-.18.55-.09h.46c.24.21.47.44.69.69M205.24,9.16c-.28.44-.45.95-.5,1.47.03.34.07.68.14,1.01-.01.47.26.9.69,1.1h-.04c.46.37,1.01.6,1.6.65.61-.04,1.16-.41,1.42-.97.42-.45.66-1.04.69-1.66.02-.7-.28-1.36-.83-1.8-.49-.38-1.08-.59-1.7-.6-.59-.02-1.16.28-1.47.78M206.06,15.04c-.37.25-.69.44-.96.6-.55.16-.92.67-.92,1.24.02.27.06.53.14.78.34.24.66.5.96.78.07.1.12.21.14.32,0,.08-.01.15-.02.23-.01.06-.02.12-.02.18,0,.15,0,.31-.05.46l-.05.46v-.04c-.06.27-.09.55-.09.83v.14c.06.61.11,1.09.14,1.43l-.05,3.08-.14,1.29v1.38l-.09.05c-.03.09-.07.17-.14.23-.4.55-.61.84-.64.87-.14.18-.21.41-.18.65-.09.55.28,1.06.83,1.15.01,0,.03,0,.04,0l1.38-.14h.23c.24,0,.49.01.73.05.05,0,.11.01.16.02.07.02.14.02.21.02.24.03.49.05.73.05,1.07,0,1.6-.35,1.6-1.06-.12-.54-.33-1.06-.64-1.52-.3-.6-.45-1.26-.46-1.93l-.09-.65v-3.36l-.09-1.15v-1.15s0-.11.02-.25c.01-.11.02-.23.02-.35,0-.1.01-.2.02-.3.01-.14.02-.24.02-.3.03-.34.05-.77.05-1.29v-.6l-.05-.37c.09-.73.14-1.22.14-1.47,0-.92-.32-1.38-.96-1.38-.69.23-1.34.58-1.93,1.01M195.7,18.69c.12.43.19.88.18,1.34l.14,1.24-.09.78c-.03.12-.05.24-.05.37l.05,2.07c-.05.79-.29,1.57-.69,2.26-.43.91-1.38,1.45-2.38,1.38-.83.06-1.63-.33-2.11-1.01-.59-.82-.92-1.8-.96-2.81-.09-1.35.05-2.7.41-4.01.32-.81.94-1.46,1.74-1.8.71-.24,1.45-.36,2.2-.37.57-.03,1.13.17,1.56.55M192.72,14.08c-.12.03-.28.07-.46.11-.11.03-.21.05-.32.07h.05c-1.4.23-2.7.89-3.71,1.89-1.5,1.6-2.25,4.14-2.25,7.64-.03.96.19,1.91.64,2.76v-.05c.32.74.7,1.45,1.15,2.12l-.05-.04c.39.57.83,1.09,1.33,1.57.48.32,1.01.57,1.56.74.51.19,1.05.3,1.6.32l.96-.18h-.05l.78-.05c.38-.12.75-.27,1.1-.46l.83-.41.32.51c.41.34.94.51,1.47.46h.41c.08,0,.15,0,.23-.02.06-.01.12-.02.18-.02.08,0,.16.01.23.05l.14.05h.18c.24.03.49.05.73.05.98,0,1.47-.37,1.47-1.1-.06-.46-.23-.91-.5-1.29l.05.05-.32-.69-.46-.78.05.05c-.06-.23-.09-.46-.09-.69l.05-12.8.05-1.84c0-.34.01-.68.05-1.01,0-.11,0-.22.02-.32.01-.08.02-.15.02-.23,0-.28-.03-.81-.09-1.61-.03-.43-.05-.97-.05-1.61,0-.09,0-.18.04-.27.12-.98.21-1.67.28-2.07.02-.73.11-1.45.27-2.16.06-.26.09-.52.09-.78.08-.61-.35-1.17-.97-1.25-.11-.01-.21-.01-.32,0-.63.04-1.22.28-1.7.69l.05-.05c-.59.39-1.22.71-1.88.97-.26.21-.56.38-.87.51-.41.27-.66.71-.69,1.2-.04.37.12.74.41.97l1.01.64c.18.2.28.47.28.74v1.38c0,.37,0,.73.05,1.1,0,.09,0,.22.02.39s.02.28.02.35c0,.25-.02.49-.04.74-.06.61-.09,1.12-.09,1.52l-.05.97v-.04l-.09,1.24c0,.25,0,.49.05.73v.23c-.57-.7-1.43-1.11-2.34-1.1l-.82.17ZM179.88,17.08c.43.36.71.87.78,1.43,0,.12-.23.18-.69.18-1.27.04-2.54-.02-3.81-.18-.05-.05-.09-.11-.09-.18.02-.36.17-.7.41-.97.41-.51,1.04-.81,1.7-.78.61-.03,1.21.15,1.7.51M175.03,15.74c-.51.65-.99,1.33-1.43,2.03v-.09c-.8,1.23-1.27,2.64-1.38,4.1-.18,1.08-.27,1.68-.27,1.8.11,1.01.34,1.99.69,2.94.49.86,1.02,1.69,1.6,2.49.32.56.76,1.05,1.28,1.43l.14.05c.06.03.14.07.25.11.08.04.16.06.25.07l.46.23c.6.25,1.23.42,1.88.51.92.05,1.84-.09,2.7-.41.8-.46,1.27-.74,1.42-.83.12-.09.25-.19.39-.3s.22-.18.25-.21c.4-.44.69-.98.82-1.57h-.05c.01-.1.04-.19.09-.27.14-.22.22-.48.23-.74,0-.52-.25-.78-.73-.78-.16,0-.31.03-.46.09-.32.17-.66.31-1.01.41-.79.21-1.61.34-2.43.37-.45,0-.9-.08-1.33-.23v.05c-.52-.26-1-.6-1.42-1.01-.61-.45-1.12-1.01-1.51-1.66-.03-.06-.12-.66-.27-1.8-.03-.23-.04-.46-.05-.69,0-.31.05-.49.14-.55.32-.31.75-.48,1.19-.46.18,0,.69.05,1.51.14h-.04c.3.04.61.06.92.05h.64c.26,0,.52-.01.78-.05.03,0,.11,0,.23-.02s.2-.02.23-.02c.34-.03.72-.05,1.15-.05l.18.05h.27c.21.04.43.05.64.05,1.16,0,1.74-.66,1.74-1.98-.05-.89-.43-1.72-1.05-2.35-1.18-1.5-2.96-2.41-4.86-2.48-1.43.03-2.79.61-3.81,1.61M145.48,21.55c-.04-.16-.06-.32-.07-.48-.01-.23-.02-.41-.02-.53,0-.25,0-.61.02-1.08s.04-.82.07-1.03c0-.18,0-.39.02-.62s.03-.41.05-.53.02-.2.02-.23c0-.49-.01-.95-.05-1.38l.05-1.66v.05l.23-1.98-.09-1.98s.02.07.05.09c.02.08.06.16.09.23,0,.13.07.25.18.32l.05.09c.02.05.05.1.09.14l-.05-.04c.77,1.33,1.4,2.73,1.88,4.19v-.05c.3,1.33.77,2.62,1.42,3.82.28.46.72,1.24,1.33,2.35.55,1.17.99,2.23,1.33,3.18.92,2.15,1.39,3.25,1.42,3.32h-.05c.15.81.39,1.6.73,2.35.31.52.64.78,1.01.78.32-.02.61-.19.78-.46.04-.13.1-.26.18-.37.37-.89.6-1.47.69-1.75v.05l.87-1.8c.49-1.53.78-2.39.87-2.58v.05c.15-.28.31-.56.46-.85.15-.29.27-.51.34-.65.05-.08.09-.16.11-.25.58-2.05.92-3.28,1.01-3.68l-.05.09c.15-.33.52-1.12,1.1-2.35.16-.77.44-1.52.83-2.21l.6-.78c.24-.42.42-.87.55-1.33.09-.25.23-.57.41-.97l.18-.55v.05c0,.37-.04.98-.14,1.84v.19c-.06.61-.09,1.01-.09,1.2v.14l.09.83c.09.64.13,1.29.14,1.93l.05,1.7c.06.49.11.8.14.92-.05.15-.08.3-.09.46-.04.24-.05.49-.05.74,0,.11,0,.22-.02.32-.02.12-.02.2-.02.23v-.05l-.04.69-.05.78c-.09,1.5-.14,2.59-.14,3.27v.46c-.03.27-.11.54-.23.78-.48.69-1.11,1.27-1.83,1.7-.24.18-.41.31-.5.37-.44.24-.74.69-.78,1.2,0,.58.44.87,1.33.87h.96c.12,0,.3,0,.53-.02s.38-.02.44-.02l2.8.05c.23,0,.46-.02.69-.05h2.24l.92.09h.14c.64,0,.96-.38.96-1.15.02-.45-.19-.88-.55-1.15l-1.05-.6c-.24-.53-.43-1.09-.55-1.66-.14-.47-.25-.94-.32-1.43v-.78c0-.12,0-.27.02-.46s.02-.31.02-.37l-.05-3.54v-1.99c.03-.37.05-1.69.05-3.96v-.46c0-.09-.03-.54-.09-1.34-.03-.65-.05-1.55-.05-2.72.03-1.44.09-2.65.18-3.64,0-.53.08-1.06.23-1.57.19-.59.58-1.09,1.1-1.43l.87-.37-.09.05c.4-.09.6-.4.6-.92-.02-.29-.13-.56-.32-.78-.25-.37-.65-.63-1.1-.69h-.09l-1.38.04h-.09c-.4-.06-.8-.09-1.2-.09-.83-.04-1.66,0-2.48.14-.5.2-.9.6-1.1,1.1v-.04c-.1.19-.18.39-.23.6l-.14.42c-.34,1.01-.66,1.92-.96,2.71l-.73,1.7-.69,2.21h.05l-1.15,3.23v-.05l-.78,2.03-.41,1.06-.28.65c-.46,1.33-1.06,2.61-1.79,3.82-.09.15-.17.28-.23.37-.4.68-.69,1.01-.87,1.01l-.09-.23h.05c-.18-.51-.41-1.01-.69-1.47-.24-.43-.46-.79-.64-1.08-.18-.29-.32-.5-.41-.62s-.14-.17-.14-.14c-.06-.21-.14-.46-.23-.74s-.16-.49-.21-.65c-.03-.11-.07-.22-.12-.32-.23-.46-.41-.94-.55-1.43,0-.06-.02-.13-.05-.19-.03-.06-.05-.12-.05-.18-.15-.46-.24-.72-.28-.78-.04-.07-.06-.15-.05-.23-1.22-2.35-2.21-4.82-2.93-7.37-.25-1.14-.4-2.29-.46-3.45-.09-.55-.15-.94-.18-1.15-.15-.63-.72-1.08-1.38-1.06-.21,0-.43.01-.64.05h.05c-.79.1-1.59.16-2.38.18-.17,0-.33-.02-.5-.04-.12,0-.28,0-.48-.02s-.34-.02-.44-.02c-.15,0-.32,0-.48-.02s-.27-.02-.3-.02h-1.15c-.34.03-.59.05-.78.05-.56.05-.97.54-.92,1.09,0,.02,0,.04,0,.06.05.63.44,1.2,1.01,1.47.59.3,1.14.67,1.65,1.1.25.48.38,1.02.37,1.57,0,.34,0,.75.02,1.24.02.49.02.83.02,1.01-.03.81,0,1.63.09,2.44l-.05-.05c.19.97.32,1.96.37,2.95l-.27,5.11c-.09,2.52-.14,4.36-.14,5.52v.87c-.18,2.06-.8,3.35-1.84,3.87-.43.19-.82.45-1.15.78-.12.19-.19.42-.18.65.02.55.39,1.04.92,1.2,1.12.15,2.26.21,3.39.18.67.03,1.31.05,1.93.05.06,0,.18,0,.37.02s.31.02.37.02c.35.03.7.05,1.05.05,1.04,0,1.56-.32,1.56-.97,0-.4-.35-.89-1.05-1.47-.75-.4-1.37-1.01-1.79-1.75-.32-.84-.52-1.73-.6-2.62v-2.07l-.1-.92ZM118.3,17.08c.43.36.71.87.78,1.43,0,.12-.23.18-.69.18-1.27.04-2.54-.02-3.8-.18-.05-.05-.09-.11-.09-.18.02-.36.17-.7.41-.97.41-.52,1.04-.81,1.7-.78.61-.03,1.21.15,1.7.51M113.45,15.74c-.51.65-.98,1.33-1.42,2.02v-.09c-.8,1.23-1.27,2.64-1.38,4.1-.18,1.08-.28,1.68-.28,1.8.11,1.01.34,1.99.69,2.94.49.85,1.02,1.68,1.6,2.48.32.56.76,1.05,1.29,1.43l.14.05c.06.03.14.07.25.11.08.04.17.06.25.07l.46.23c.6.25,1.23.42,1.88.51.92.05,1.84-.09,2.71-.41.8-.46,1.27-.74,1.42-.83.12-.09.25-.19.39-.3s.22-.18.25-.21c.4-.44.69-.98.83-1.57h-.05c.01-.1.04-.19.09-.27.14-.22.21-.48.23-.74,0-.52-.24-.78-.73-.78-.16,0-.32.03-.46.09-.32.17-.66.31-1.01.41-.79.21-1.61.34-2.43.37-.45,0-.9-.08-1.33-.23v.05c-.52-.26-1-.6-1.42-1.01-.61-.45-1.12-1.01-1.51-1.66-.03-.06-.12-.66-.28-1.8-.03-.23-.04-.46-.05-.69,0-.31.05-.49.14-.55.32-.31.75-.48,1.19-.46.18,0,.69.05,1.51.14h-.05c.3.04.61.06.92.05h.64c.26,0,.52-.01.78-.05.03,0,.11,0,.23-.02s.2-.02.23-.02c.33-.03.72-.05,1.15-.05l.18.05h.28c.21.04.43.05.64.05,1.16,0,1.74-.66,1.74-1.98-.05-.89-.43-1.72-1.06-2.35-1.18-1.5-2.95-2.41-4.86-2.48-1.43.03-2.79.61-3.81,1.61M104.86,18.6c.27-.86.53-1.33.78-1.43l.09.09c.3.5.66.96,1.06,1.38.36.38.85.6,1.38.6.4.01.79-.16,1.06-.46.54-.51.83-1.24.78-1.99.02-.8-.26-1.59-.8-2.19-.51-.59-1.26-.92-2.04-.9-.09,0-.55.09-1.38.28-.46.18-.72.29-.78.32-.26.2-.54.38-.83.55l-.46-1.15c-.51.14-1,.37-1.42.69-.44.37-.92.69-1.42.97-.09.08-.19.14-.3.19-.09.03-.17.08-.25.14h.05c-.12.06-.34.18-.64.37-.36.21-.59.59-.6,1.01-.04.47.24.9.69,1.06l.37.18h-.05l.37.18-.09-.05c.33.49.5,1.07.5,1.66.06,1.26.11,2.23.14,2.9v-.05l.05,1.47v.18c-.12,1.53-.2,2.65-.23,3.36-.01.18-.09.34-.23.46l-.87.87c-.15.2-.23.44-.23.69,0,.71.63,1.07,1.88,1.1h.05c.28,0,.55-.02.83-.05l.69-.05h.18c1.19.12,1.97.18,2.34.18.92,0,1.38-.34,1.38-1.01,0-.49-.47-1.03-1.42-1.61-.53-.3-.85-.87-.83-1.47,0-.21-.03-.63-.09-1.24-.06-.61-.09-1-.09-1.15,0-.06.01-.12.02-.18.02-.09.02-.18.02-.27,0-.43.02-.8.05-1.1v-2.07c0-.84.1-1.68.32-2.49M91.51,18.46c.4.86.66,1.48.78,1.84h0l.6,1.47c.08.24.11.49.09.74-.01,1.05-.2,2.09-.55,3.08-.19.97-.77,1.81-1.6,2.35-.66.37-1.4.6-2.15.65-.03,0-.46-.25-1.28-.74l-1.01-.55c-.29-.16-.53-.4-.69-.69l.05.14c-.05-.12-.1-.24-.14-.37-.06-.18-.11-.32-.14-.42l.05.05c-.02-.07-.05-.13-.09-.18-.03-.04-.05-.09-.05-.14-.3-.63-.5-1.29-.6-1.98-.03-.31-.05-.97-.05-1.98-.03-.88.11-1.75.41-2.58v.05c.42-.82,1.02-1.54,1.74-2.12h-.05c.35-.19.75-.27,1.15-.23,1.38-.11,2.71.5,3.53,1.61M93.44,29.92h-.04c1.05-.62,1.9-1.53,2.43-2.63.88-1.65,1.37-3.47,1.42-5.34.07-1.77-.52-3.51-1.65-4.88v.05l-.59-.78c-.46-.6-1.08-1.06-1.79-1.33-.8-.37-1.36-.61-1.7-.74h.09c-.7-.08-1.4-.11-2.11-.09-.72.02-1.44.1-2.15.23-.62.2-1.24.43-1.83.69-1.96.81-3.54,2.34-4.4,4.28v-.05c-.28.62-.39,1.3-.32,1.98v2.35c.07,1.84.88,3.56,2.25,4.79.59.53,1.21,1,1.88,1.43,1.41.95,3.07,1.46,4.77,1.47.7,0,1.39-.12,2.06-.32l.05-.05c.58-.3,1.13-.66,1.65-1.06M75.47,24.21c.02,1.4-.47,2.75-1.37,3.82-.27.44-.73.73-1.24.78h-.09c-.06,0-.12,0-.18-.02-.04-.01-.09-.02-.14-.02h-.78c-1.01-.03-1.65-.24-1.93-.65l.05.09-.28-.83c-.12-.15-.2-.32-.23-.51l.05.14v-.97l-.09-.87v-2.44l.04-.74-.05-1.15s0-.11.02-.23c.01-.09.02-.18.02-.27l.23-2.02c.18-.55.76-.83,1.74-.83,2.81,0,4.22,2.24,4.22,6.72M68.92,12.93c-.85.05-1.63.49-2.11,1.2-.22.36-.5.69-.82.97l.09-.05c-.59.29-1.16.63-1.7,1.01-.37.25-.6.66-.64,1.1,0,.52.18.84.55.97.27.11.53.23.78.37l-.09-.05c.2.19.34.43.41.69l-.13,1.15-.05,2.21-.04,1.1c0,.18.01.37.04.55v-.05c.04.29.05.58.05.87l.05,1.15.09,1.15v.14s-.03.2-.09.51c-.03.21-.05.43-.05.65l.05.78-.05,1.75v.51c0,.18,0,.45.02.81s.02.59.02.71c.03.43.05.9.05,1.43,0,.04.02.07.05.09v.05l-.14,1.84c0,.09,0,.24-.02.44s-.02.36-.02.48c-.03.55-.04,1.23-.04,2.03l.04-.14-.37,1.1c-.24.31-.52.59-.82.83-.3.17-.51.48-.55.83,0,.71.47,1.06,1.42,1.06h.5c.1,0,.2,0,.3-.02.07-.01.14-.02.21-.02.29.01.58.04.87.09.32.03.64.05.96.05.13-.02.25-.05.37-.09l-.09.06c.92-.09,1.49-.14,1.7-.14h.55c.09,0,.22,0,.39.02s.28.02.34.02c.73,0,1.1-.32,1.1-.97,0-.49-.18-.78-.55-.87h.05c-.58-.25-.92-.38-1.01-.41-.08-.08-.17-.14-.27-.19-.59-.39-.93-1.05-.92-1.75l.05-4.37-.14-1.52.05-.55c0-.28,0-.55.02-.81s.02-.45.02-.58v-.14l2.43.55.96-.09c.47-.04.93-.13,1.38-.27.39-.14.76-.33,1.1-.55,0-.03.03-.06.09-.09l.09-.05c.9-.62,1.69-1.38,2.34-2.26.81-1.02,1.32-2.25,1.47-3.54v-.14l-.05-1.15v-2.94c-.06-.33-.14-.65-.23-.97h.05c-.2-.79-.46-1.55-.78-2.3h0c-.12-.36-.28-.7-.5-1.01l.05.05c-.48-.74-1.17-1.31-1.97-1.66-1.11-.56-2.34-.85-3.58-.83-.82-.01-1.61.26-2.25.78.03-.14.05-.27.04-.41,0-.77-.37-1.15-1.1-1.15M56.7,22.7c.01.06.02.12.02.18l.04.88c0,.18-.02.37-.04.55-.03.18-.06.37-.07.55s-.04.37-.07.55c-.02.12-.04.25-.05.37v-.05c-.03.2-.05.4-.05.6-.12,1.23-.51,1.84-1.15,1.84-.65,0-1.28-.23-1.79-.64-.31-.25-.48-.62-.46-1.01.08-.89.45-1.73,1.06-2.39.37-.37.77-.7,1.19-1.01.12-.13.26-.24.41-.32.24-.28.54-.5.87-.64.04.1.05.21.05.32,0,.08,0,.15.02.23M55.94,17.73l-.05-.05c.26.42.47.87.64,1.33-.05.4-.23.77-.5,1.06-.44.39-.96.69-1.51.88-.12.03-.6.23-1.42.6l-.27.09c-1.19.56-2.24,1.38-3.07,2.39-.35.49-.55,1.06-.6,1.66,0,.09,0,.21-.02.37s-.02.25-.02.28v.55c-.06.13-.09.27-.09.41,0,.05,0,.09.02.14.02.09.04.18.05.27.02.12.04.25.07.37v.09l.05.09c0,.11.01.22.05.32.04.45.23.87.55,1.2.93,1.01,2.25,1.6,3.62,1.61,1.21-.05,2.38-.38,3.44-.97h-.05c.15-.06.21-.11.18-.14l.14.09c.07.04.13.08.18.14,0,.03.03.06.09.09l.09.05.6.46c.33.17.69.27,1.06.27.96-.08,1.82-.63,2.29-1.47.39-.37.66-.85.78-1.38,0-.21-.08-.41-.23-.55l-.87-.37s-.12-.09-.27-.27c-.32-.32-.56-.72-.69-1.15-.03-.34-.05-.74-.05-1.2l.05-5.66s0-.11.02-.23c.01-.09.02-.18.02-.27v-.28c.02-.71-.17-1.42-.55-2.02-.52-.94-1.32-1.7-2.29-2.16-.79-.23-1.61-.33-2.43-.27-.47.01-.92.14-1.33.37l-.5.27.05-.05c-.55.17-1.08.42-1.56.74l.05-.05c-.65.51-1.02,1.29-1.01,2.12,0,.95.4,1.43,1.19,1.43.41-.06.79-.23,1.1-.51.31-.22.6-.47.87-.74.09-.05.16-.11.23-.18l.09-.18.14-.18.55-.09h.46c.25.21.48.44.69.69M45.3,2.12l-.37-.09c-.4-.12-.5-.25-.32-.37-.15.12-.46.34-.92.64v-.05l-.96.64c-.25.31-.54.57-.87.78-1.13.62-1.7,1.22-1.7,1.8s.15.92.46,1.01h-.09l.92.55c.12.14.21.29.28.46v-.05c.13.37.21.76.23,1.15l.32,1.15v-.05c.04.3.06.61.05.92,0,.98-.02,1.7-.05,2.16v.69l-.05.41v1.7c.03.34.07.68.14,1.01v.23s-.01.09-.02.14c-.01.05-.02.09-.02.14v-.05c-.1.73-.16,1.47-.18,2.21v.41c.04.18.05.37.05.55v1.52l.14,1.84-.05.41-.05.51-.14,1.29c.01.45-.02.9-.09,1.34l.05-.05-.46.92.05-.05-.37.6.05-.05-.73.87c-.19.25-.29.56-.27.87,0,.55.32.83.96.83.26,0,.52-.01.78-.05l.09-.05h.23l.78.05h.32c.12,0,.29,0,.5-.02s.35-.02.41-.02h1.33c.46,0,.92,0,1.38-.05.4-.09.6-.41.6-.97,0-.3-.07-.6-.18-.88l-.55-.51-.18-.27c-.21-.65-.37-1.07-.46-1.29h0c0-.09-.02-.17-.05-.25-.03-.08-.04-.17-.04-.25-.06-.4-.12-.87-.18-1.43-.15-1.1-.23-1.69-.23-1.75,0-.15.05-.55.14-1.2v-.46l-.09-2.94c-.01-1.31-.14-2.62-.37-3.91h.23l.14-4.14v.05l.05-.46-.09-2.39v-.09c.03-.46.05-.94.05-1.43,0-.11,0-.22.02-.32.01-.09.02-.18.02-.28v-.41c0-.1.02-.2.05-.3.03-.11.05-.19.07-.25.01-.05.02-.09.02-.14v-.14l-.09-1.24c.1-.34.16-.7.18-1.06,0-.67-.28-1.01-.83-1.01v.88ZM34.2,17.08c.43.36.71.87.78,1.43,0,.12-.23.18-.69.18-1.27.04-2.54-.02-3.81-.18-.05-.05-.09-.11-.09-.18.02-.36.17-.7.41-.97.41-.51,1.04-.81,1.7-.78.61-.03,1.21.15,1.7.51M29.34,15.74c-.51.65-.98,1.33-1.42,2.02v-.09c-.8,1.23-1.27,2.64-1.38,4.1-.18,1.08-.27,1.68-.27,1.8.11,1.01.34,1.99.69,2.94.49.85,1.03,1.68,1.61,2.48.32.56.76,1.05,1.28,1.43l.14.05c.06.03.15.07.25.11.08.04.16.06.25.07l.46.23c.6.25,1.23.42,1.88.51.92.05,1.84-.09,2.71-.41.79-.46,1.27-.74,1.42-.83.12-.09.25-.19.39-.3s.22-.18.25-.21c.4-.44.69-.98.83-1.57h-.05c.01-.1.04-.19.09-.27.14-.22.22-.48.23-.74,0-.52-.24-.78-.73-.78-.16,0-.31.03-.46.09-.32.17-.66.31-1.01.41-.79.21-1.61.34-2.43.37-.45,0-.9-.08-1.33-.23v.05c-.52-.26-1-.6-1.42-1.01-.61-.45-1.12-1.01-1.52-1.65-.03-.06-.12-.66-.27-1.8-.03-.23-.04-.46-.05-.69,0-.31.05-.49.14-.55.32-.31.75-.48,1.19-.46.18,0,.69.05,1.52.14h-.05c.3.04.61.06.92.05h.64c.26,0,.52-.01.78-.05.03,0,.11,0,.23-.02s.2-.02.23-.02c.34-.03.72-.05,1.15-.05l.18.05h.27c.21.04.43.05.64.05,1.16,0,1.74-.66,1.74-1.98-.05-.89-.43-1.72-1.06-2.35-1.18-1.5-2.96-2.41-4.86-2.48-1.43.03-2.79.61-3.81,1.61M13.25,3.41h-.04c.33.18.82.47,1.47.87h-.05c.43.31.7.51.82.6l-.09-.05.27.14c.66.34,1.28.75,1.83,1.24.58.82,1.1,1.68,1.56,2.58.12.25.25.49.39.74s.25.43.32.55c.05.07.09.15.11.23v.23c.06.92.09,1.49.09,1.7l.05,1.24.14,1.2c0,.16-.03.57-.09,1.24,0,.17-.02.34-.05.51-.03.22-.05.4-.07.55s-.02.29-.02.41l-.32,1.8c-.03.25-.07.56-.12.94s-.07.59-.07.62c0,.07,0,.14-.02.21-.01.05-.02.11-.02.16-.06.34-.17.66-.32.97-.11.16-.24.31-.37.46-.18.25-.31.41-.37.51-.2.28-.39.57-.55.87l-.27.41c-.04.08-.1.15-.16.21l-.16.16.05-.05c-.13.13-.26.27-.37.41l-1.01,1.2c-.24.3-.5.57-.78.83-.76.28-1.18.43-1.24.46l-1.01.23-1.42.23c-.27.06-.54.13-.78.21s-.41.13-.5.16l-.14.05c-.59-.02-1.14-.31-1.49-.78-.42-.45-.65-1.05-.67-1.66,0-.06.02-.13.05-.18v-.28c.06-.61.09-1.07.09-1.38-.02-.39-.07-.77-.14-1.15,0-.23-.01-.46-.05-.69l.05-1.15.05-1.1v.05c.06-.52.11-1.07.14-1.66l-.18-2.12v-.18c0-.08.01-.16.05-.23.03-.67.04-1.58.05-2.72,0-.18,0-.38.02-.6s.04-.45.07-.71c.03-.21.04-.41.05-.62.06-.49.09-.78.09-.88v-.83c-.21-.92-.32-1.41-.32-1.47.18-.98.3-1.83.37-2.53.09-1.57,1.28-2.35,3.58-2.35.51,0,1.02.05,1.51.18M.18,1.56c0,.46.22.89.6,1.15.08.08.18.15.27.21.07.05.15.09.23.12l.37.28-.09-.05c.23.24.43.5.6.78.06.16.2.66.41,1.52.03.18.07.6.14,1.24.06.61.09.95.09,1.01-.03.34-.07.68-.14,1.01-.06.53-.09,1.07-.09,1.61,0,.37.01.8.04,1.29.06,1.04.09,1.8.09,2.26v2.2c0,.48.02.96.09,1.43v.05c0,.63-.02,1.26-.09,1.89v1.1c.06.86.09,1.44.09,1.75,0,.09-.03.51-.09,1.24-.1.52-.16,1.04-.18,1.57v.37c.08.91-.28,1.8-.96,2.4-.17.15-.35.27-.55.37-.12.06-.26.14-.41.23l-.18.09h.04c-.32.25-.5.65-.46,1.06,0,.86.37,1.3,1.1,1.34l.73-.05,1.56.05,1.24-.05c.4.03.85.05,1.38.05.52-.01,1.04,0,1.56.05.12.03.24.05.34.07.12.02.23.04.34.07.07.02.15.04.23.04.15.03.31.05.46.05.04,0,.08,0,.11-.02.05-.02.11-.03.16-.02.21-.01.41-.06.6-.14l.46.05s.12,0,.28-.02.27-.02.37-.02c.67-.03,1.22-.05,1.65-.05.91-.16,1.81-.42,2.66-.78.09-.04.18-.07.27-.09.12-.03.23-.06.32-.09.08-.03.15-.06.23-.09h-.05c.95-.3,1.89-.65,2.8-1.06l.64-.37c.06-.05.13-.1.21-.14.11-.06.19-.11.25-.14l-.05.05c.63-.45,1.23-.94,1.79-1.47.57-.7,1.06-1.46,1.47-2.26.52-.86.81-1.37.87-1.52.2-.43.36-.87.46-1.34.43-1.2.69-2.46.78-3.73v-4.64c-.03-.96-.12-1.91-.27-2.86-.24-1.03-.54-2.05-.92-3.04-.58-.88-1.26-1.7-2.02-2.44-.76-1.02-1.73-1.87-2.84-2.48l.09.09-.64-.6-.32-.18c-1.01-.7-2.12-1.23-3.3-1.57-1.47-.06-2.69-.11-3.67-.14-.15,0-.34,0-.57-.02s-.39-.02-.48-.02c-.37.02-.74,0-1.1-.05l-2.52.14c-.6.16-1.22.28-1.84.37-.09,0-.19-.01-.28-.04h-.05c-.65-.16-1.31-.24-1.97-.23C.96.37.18.77.18,1.56"/>
  </g>
</svg>